<?xml version="1.0" encoding="UTF-8"?>
<svg version="1.1" xmlns="http://www.w3.org/2000/svg" width="295" height="331">
<path d="M0 0 C0 7.26 0 14.52 0 22 C-1.52625 21.67 -3.0525 21.34 -4.625 21 C-16.20888229 18.9399797 -26.02813455 18.72702442 -35.99609375 25.3203125 C-40.4769827 28.72988705 -43.06992207 32.3780111 -44 38 C-45.42249026 55.30103777 -40.77203323 68.19378505 -32.6015625 83.1875 C-24.04467852 98.89932829 -15.65167342 115.53725377 -17.6875 133.875 C-17.75388672 134.63941406 -17.82027344 135.40382812 -17.88867188 136.19140625 C-18.88553685 145.43791756 -23.15012981 152.75099562 -30 159 C-38.14451435 164.47484825 -45.20692187 165.94915809 -55 165 C-62.92899559 162.75800814 -67.89980856 158.00155541 -72 151 C-75.18129418 144.50709356 -77.73348386 137.83799139 -80.0625 131 C-81.68997252 126.40239012 -83.50294396 123.40738794 -87 120 C-87.99 119.67 -88.98 119.34 -90 119 C-92.67725413 123.01588119 -92.61167206 126.35783061 -92 131 C-90.79789173 135.03840933 -89.20995844 138.87509775 -87.5625 142.75 C-86.72689765 144.76414718 -85.89473613 146.77972608 -85.06640625 148.796875 C-84.69459229 149.67698242 -84.32277832 150.55708984 -83.93969727 151.46386719 C-80.66535466 160.30093421 -81.26046378 169.40763053 -85 178 C-89.04760363 184.96628379 -96.40723601 189.09337591 -103.890625 191.64453125 C-114.66853172 193.46080812 -124.41468332 192.37676484 -133.55078125 186.3046875 C-139.74841781 181.65881123 -144.49388633 176.26805474 -149 170 C-149.46019531 169.37738281 -149.92039063 168.75476563 -150.39453125 168.11328125 C-158.62680339 156.0654163 -163.21277246 139.69537692 -166.09375 125.59375 C-167.17426127 122.50125223 -168.45012067 121.0303712 -171 119 C-174.17199493 118.86502149 -176.05576369 119.15170214 -178.4609375 121.3125 C-184.17888946 127.92284908 -183.61741333 135.4125715 -183.20458984 143.67578125 C-180.85356003 170.38437771 -161.45672804 196.12801048 -147.25 217.8125 C-134.55210794 237.21941369 -120.69851768 259.87051313 -124.46875 284 C-126.01969283 291.23773322 -128.75403646 296.96736864 -133 303 C-133.41765625 303.63679688 -133.8353125 304.27359375 -134.265625 304.9296875 C-139.07649174 311.45044061 -148.0183185 316.62556107 -156 318 C-169.66195549 319.50974508 -182.00857572 313.07681221 -192.625 305.00390625 C-207.9608095 291.94450597 -217.24474312 274.42720721 -224.04907227 255.79907227 C-227.09446407 247.51981545 -230.80593769 239.75181379 -235 232 C-235.87978516 230.34871094 -235.87978516 230.34871094 -236.77734375 228.6640625 C-241.30248795 220.51675073 -246.46675819 212.33370614 -255 208 C-258.64407137 207.66339855 -258.64407137 207.66339855 -262 209 C-264.91758481 214.24221936 -265.45156244 218.5769701 -265.3125 224.5 C-265.30412109 225.28246094 -265.29574219 226.06492188 -265.28710938 226.87109375 C-265.15847211 233.22062931 -264.3947084 239.35630558 -263.45703125 245.63671875 C-262.19785032 254.90299894 -262.19785032 254.90299894 -263 259 C-266.55776212 261.37184142 -268.28020607 261.29824394 -272.5 261.3125 C-273.6446875 261.32925781 -274.789375 261.34601563 -275.96875 261.36328125 C-279 261 -279 261 -280.8359375 259.73828125 C-282.16590904 257.75224992 -282.66316958 256.21773975 -283.125 253.875 C-283.34542969 252.81925781 -283.34542969 252.81925781 -283.5703125 251.7421875 C-284.93689818 243.02088614 -285.24472919 234.44424108 -285.3125 225.625 C-285.34150391 224.37460938 -285.37050781 223.12421875 -285.40039062 221.8359375 C-285.47404666 211.00283487 -283.70098644 201.72647425 -275.9765625 193.72265625 C-269.7908546 188.3315551 -263.28032411 185.54432179 -255 186 C-242.26162702 188.52712883 -232.5623013 198.72008576 -225.25 208.9375 C-219.10016852 218.37464946 -213.87517856 228.00030378 -209.37338257 238.3291626 C-208.54086354 240.23708529 -207.69827778 242.140275 -206.8527832 244.04248047 C-204.81445479 248.6292369 -202.78561446 253.22015984 -200.75878906 257.81201172 C-196.70377119 266.9439409 -192.32962801 275.18104775 -186 283 C-185.34644531 283.85980469 -184.69289063 284.71960938 -184.01953125 285.60546875 C-178.10257725 292.62112213 -168.76435762 296.98120008 -159.76953125 298.3359375 C-156.51018612 298.29811144 -154.40116252 297.36627882 -152.0234375 295.1953125 C-146.55101274 288.68695548 -144.64546388 283.15758244 -145.1875 274.75 C-148.08239189 251.3013757 -161.94654753 232.19120183 -174.625 212.875 C-180.15284522 204.4487535 -185.22632031 195.87259876 -190 187 C-190.69996094 185.77603516 -190.69996094 185.77603516 -191.4140625 184.52734375 C-194.55324262 178.78568204 -196.59789601 172.68125274 -198.6875 166.5 C-198.98543457 165.62126221 -199.28336914 164.74252441 -199.59033203 163.8371582 C-202.56156556 154.77903438 -204.38067459 146.11583533 -204.3125 136.5625 C-204.30512817 135.32536255 -204.30512817 135.32536255 -204.29760742 134.06323242 C-204.09181557 123.32089769 -201.71286545 113.97746132 -194.14453125 106.05859375 C-187.14202233 99.57077601 -179.82552043 96.62135909 -170.1796875 96.78515625 C-162.52995279 97.53916236 -156.59903688 100.66431814 -151.6640625 106.609375 C-147.73365043 112.18341394 -146.29302094 118.40525558 -144.56103516 124.92089844 C-137.61826284 150.69047678 -137.61826284 150.69047678 -120.125 169.9375 C-114.87476654 171.72257937 -110.24936985 171.6426771 -104.9375 170.125 C-102.17138699 167.09119864 -102.61139522 164.74271841 -102.69067383 160.75439453 C-103.19870454 156.23063564 -104.94112492 152.45688166 -106.875 148.375 C-112.08143102 137.04227382 -115.457286 126.43213976 -111.25 114.125 C-108.01880474 106.25385307 -103.82775584 102.27732129 -96 99 C-89.59567397 97.19223843 -83.85112962 97.84334016 -78 101 C-66.89245021 108.79746583 -61.49437906 119.202969 -57.8984375 132.00390625 C-56.32344623 137.25615975 -54.68700467 141.87533022 -50 145 C-46.47556916 144.85002422 -44.5508197 144.42841532 -41.75 142.25 C-37.3716054 136.62063552 -37.34117902 130.85173815 -38 124 C-40.58344137 109.87981666 -48.58731434 96.47495156 -55.1328125 83.86328125 C-63.52621632 67.63966738 -68.91492973 49.27431133 -64.24609375 31.05859375 C-60.29934267 19.18531329 -53.28325586 10.15835811 -42.1875 4.25 C-28.43592428 -2.04415021 -14.78262443 -2.11180349 0 0 Z " fill="#F76C25" transform="translate(295,13)"/>
<path d="M0 0 C0 7.26 0 14.52 0 22 C-1.52625 21.67 -3.0525 21.34 -4.625 21 C-16.20888229 18.9399797 -26.02813455 18.72702442 -35.99609375 25.3203125 C-40.4769827 28.72988705 -43.06992207 32.3780111 -44 38 C-45.42249026 55.30103777 -40.77203323 68.19378505 -32.6015625 83.1875 C-24.04467852 98.89932829 -15.65167342 115.53725377 -17.6875 133.875 C-17.75388672 134.63941406 -17.82027344 135.40382812 -17.88867188 136.19140625 C-18.88553685 145.43791756 -23.15012981 152.75099562 -30 159 C-38.14451435 164.47484825 -45.20692187 165.94915809 -55 165 C-62.92899559 162.75800814 -67.89980856 158.00155541 -72 151 C-75.18129418 144.50709356 -77.73348386 137.83799139 -80.0625 131 C-81.68997252 126.40239012 -83.50294396 123.40738794 -87 120 C-88.485 119.505 -88.485 119.505 -90 119 C-92.72157352 123.08236028 -92.55959775 126.20646455 -92 131 C-91.11870606 134.00848646 -89.88964466 136.78891004 -88.5625 139.625 C-84.85633808 147.72718368 -83.82854243 154.87660359 -83.875 163.75 C-83.86919922 164.88115234 -83.86919922 164.88115234 -83.86328125 166.03515625 C-83.86904833 169.28202205 -83.96629022 171.89887065 -85 175 C-90.76933874 174.54452589 -96.76793521 173.0812032 -101 169 C-102.17829927 164.29746627 -102.2220224 159.82572216 -102 155 C-102.66 155 -103.32 155 -104 155 C-105.13315391 152.5034256 -106.25656579 150.00316228 -107.375 147.5 C-107.69210938 146.80390625 -108.00921875 146.1078125 -108.3359375 145.390625 C-112.90672184 135.10636024 -114.979851 125.03554841 -111.25 114.125 C-108.01880474 106.25385307 -103.82775584 102.27732129 -96 99 C-89.59567397 97.19223843 -83.85112962 97.84334016 -78 101 C-66.89245021 108.79746583 -61.49437906 119.202969 -57.8984375 132.00390625 C-56.32344623 137.25615975 -54.68700467 141.87533022 -50 145 C-46.47556916 144.85002422 -44.5508197 144.42841532 -41.75 142.25 C-37.3716054 136.62063552 -37.34117902 130.85173815 -38 124 C-40.58344137 109.87981666 -48.58731434 96.47495156 -55.1328125 83.86328125 C-63.52621632 67.63966738 -68.91492973 49.27431133 -64.24609375 31.05859375 C-60.29934267 19.18531329 -53.28325586 10.15835811 -42.1875 4.25 C-28.43592428 -2.04415021 -14.78262443 -2.11180349 0 0 Z " fill="#1591D6" transform="translate(295,13)"/>
<path d="M0 0 C16.14501576 12.23896356 26.08449701 29.89261853 34.04849243 48.1651001 C34.88101146 50.07302279 35.72359722 51.9762125 36.5690918 53.87841797 C38.60742021 58.4651744 40.63626054 63.05609734 42.66308594 67.64794922 C46.71810381 76.7798784 51.09224699 85.01698525 57.421875 92.8359375 C58.07542969 93.69574219 58.72898437 94.55554688 59.40234375 95.44140625 C66.31473784 103.63733967 77.10116521 107.30974176 87.421875 108.8359375 C87.92931923 110.72979187 88.42752074 112.62612416 88.921875 114.5234375 C89.33953125 116.10705078 89.33953125 116.10705078 89.765625 117.72265625 C90.3610465 120.54736422 90.54973992 122.96430458 90.421875 125.8359375 C72.1088603 126.24039672 59.76902681 123.59571514 45.85546875 110.39453125 C33.48252897 97.38606326 25.4925555 82.38898769 19.37280273 65.63500977 C16.32741093 57.35575295 12.61593731 49.58775129 8.421875 41.8359375 C7.54208984 40.18464844 7.54208984 40.18464844 6.64453125 38.5 C2.11938705 30.35268823 -3.04488319 22.16964364 -11.578125 17.8359375 C-15.22219637 17.49933605 -15.22219637 17.49933605 -18.578125 18.8359375 C-21.49570981 24.07815686 -22.02968744 28.4129076 -21.890625 34.3359375 C-21.88224609 35.11839844 -21.87386719 35.90085938 -21.86523438 36.70703125 C-21.73659711 43.05656681 -20.9728334 49.19224308 -20.03515625 55.47265625 C-18.77597532 64.73893644 -18.77597532 64.73893644 -19.578125 68.8359375 C-23.13588712 71.20777892 -24.85833107 71.13418144 -29.078125 71.1484375 C-30.2228125 71.16519531 -31.3675 71.18195313 -32.546875 71.19921875 C-35.578125 70.8359375 -35.578125 70.8359375 -37.4140625 69.57421875 C-38.74403404 67.58818742 -39.24129458 66.05367725 -39.703125 63.7109375 C-39.92355469 62.65519531 -39.92355469 62.65519531 -40.1484375 61.578125 C-41.51502318 52.85682364 -41.82285419 44.28017858 -41.890625 35.4609375 C-41.91962891 34.21054688 -41.94863281 32.96015625 -41.97851562 31.671875 C-42.05230677 20.8189001 -40.25872556 11.60666863 -32.57421875 3.55859375 C-23.00729944 -4.69778867 -11.04679611 -6.7769352 0 0 Z " fill="#F1CFE6" transform="translate(51.578125,203.1640625)"/>
<path d="M0 0 C6.60697103 6.75712946 8.78561873 13.692132 11.18896484 22.73339844 C18.13173716 48.50297678 18.13173716 48.50297678 35.625 67.75 C40.78878404 69.50568657 45.41083052 69.75015575 50.5078125 67.70703125 C53.07888348 65.95444096 53.07888348 65.95444096 53.23828125 62.67578125 C53.18027344 61.50402344 53.12226563 60.33226562 53.0625 59.125 C52.99482422 57.35576172 52.99482422 57.35576172 52.92578125 55.55078125 C52.86777344 54.64714844 52.80976563 53.74351562 52.75 52.8125 C54.75 54.8125 54.75 54.8125 54.9453125 57.6328125 C54.92210937 58.72335938 54.89890625 59.81390625 54.875 60.9375 C54.85695313 62.03320312 54.83890625 63.12890625 54.8203125 64.2578125 C54.79710937 65.10085937 54.77390625 65.94390625 54.75 66.8125 C55.925625 67.18375 55.925625 67.18375 57.125 67.5625 C61.72628056 69.14914847 66.23095638 71.00488255 70.75 72.8125 C70.75 64.8925 70.75 56.9725 70.75 48.8125 C74.62694979 54.62792468 74.50187122 61.63897756 73.2890625 68.37109375 C71.40028421 75.6706663 68.44444246 80.44591512 62.0546875 84.5390625 C52.4033179 89.96956646 42.88233497 91.5591164 31.89453125 89.19921875 C21.03799275 85.28119929 13.33580153 76.97342392 6.75 67.8125 C6.28980469 67.18988281 5.82960937 66.56726563 5.35546875 65.92578125 C-2.87680339 53.8779163 -7.46277246 37.50787692 -10.34375 23.40625 C-11.42426127 20.31375223 -12.70012067 18.8428712 -15.25 16.8125 C-18.42199493 16.67752149 -20.30576369 16.96420214 -22.7109375 19.125 C-27.08422041 24.18081839 -27.47065711 28.58344092 -27.8125 35 C-27.85568359 35.74958984 -27.89886719 36.49917969 -27.94335938 37.27148438 C-28.04922685 39.11828375 -28.1500976 40.96536834 -28.25 42.8125 C-30.14492006 43.15098652 -32.04098466 43.48306911 -33.9375 43.8125 C-34.99324219 43.998125 -36.04898438 44.18375 -37.13671875 44.375 C-40.25 44.8125 -40.25 44.8125 -45.25 44.8125 C-44.59 50.0925 -43.93 55.3725 -43.25 60.8125 C-50.21911176 50.35883236 -49.54217825 33.46708924 -47.74609375 21.4375 C-45.38011891 11.7032035 -40.37069993 4.64393595 -32.25 -1.1875 C-21.738948 -7.1040303 -9.93025372 -6.68382462 0 0 Z " fill="#CFCE41" transform="translate(139.25,115.1875)"/>
<path d="M0 0 C0 7.26 0 14.52 0 22 C-1.52625 21.67 -3.0525 21.34 -4.625 21 C-16.20888229 18.9399797 -26.02813455 18.72702442 -35.99609375 25.3203125 C-40.47738419 28.73019254 -43.06852875 32.37790569 -44 38 C-44.94468907 49.38350328 -43.5363973 59.15399579 -40 70 C-42.1234016 70.83739781 -44.2487728 71.66980283 -46.375 72.5 C-48.15003906 73.19609375 -48.15003906 73.19609375 -49.9609375 73.90625 C-53 75 -53 75 -55 75 C-54.67 76.65 -54.34 78.3 -54 80 C-53.67 80 -53.34 80 -53 80 C-52.67 82.64 -52.34 85.28 -52 88 C-61.49619691 79.99727026 -64.77820752 60.27209037 -65.875 48.8125 C-66.47348651 35.17007667 -63.03065451 23.73643875 -54.25 13.125 C-39.7291641 -2.02598539 -19.51473098 -2.78781871 0 0 Z " fill="#B9D8E6" transform="translate(295,13)"/>
<path d="M0 0 C5.58858778 4.59136765 10.53358338 10.09877657 13 17 C13.125 20.2734375 13.125 20.2734375 13 23 C10.91891315 23.67364661 8.8350329 24.33866798 6.75 25 C5.58984375 25.37125 4.4296875 25.7425 3.234375 26.125 C0 27 0 27 -4 27 C-4 26.34 -4 25.68 -4 25 C-4.66 25 -5.32 25 -6 25 C-7.61341433 23.02705044 -9.01831805 20.94530349 -10.46484375 18.84765625 C-11.95699606 16.72122729 -11.95699606 16.72122729 -15 16 C-17.72157352 20.08236028 -17.55959775 23.20646455 -17 28 C-16.11870606 31.00848646 -14.88964466 33.78891004 -13.5625 36.625 C-9.85633808 44.72718368 -8.82854243 51.87660359 -8.875 60.75 C-8.86919922 61.88115234 -8.86919922 61.88115234 -8.86328125 63.03515625 C-8.86904833 66.28202205 -8.96629022 68.89887065 -10 72 C-15.76933874 71.54452589 -21.76793521 70.0812032 -26 66 C-27.17829927 61.29746627 -27.2220224 56.82572216 -27 52 C-27.66 52 -28.32 52 -29 52 C-30.13315391 49.5034256 -31.25656579 47.00316228 -32.375 44.5 C-32.69210938 43.80390625 -33.00921875 43.1078125 -33.3359375 42.390625 C-37.90672184 32.10636024 -39.979851 22.03554841 -36.25 11.125 C-32.98173558 3.16355311 -28.74222926 -0.45602182 -21 -4 C-13.73194909 -6.35225679 -6.14527651 -4.20210607 0 0 Z " fill="#13684F" transform="translate(220,116)"/>
<path d="M0 0 C1.75 0.05078125 1.75 0.05078125 4 1 C5.544843 3.39873083 6.78549921 5.6279418 8 8.1875 C8.52219116 9.25931519 8.52219116 9.25931519 9.05493164 10.3527832 C16.37909631 25.87397601 19.906412 42.45319785 14 59 C12.27720127 62.5574015 10.27289403 65.77069017 8 69 C7.58234375 69.63679688 7.1646875 70.27359375 6.734375 70.9296875 C1.9415532 77.42598211 -7.03139121 82.67462564 -15 84 C-21.05418068 84.43606327 -26.27081834 83.99275884 -32 82 C-27.85340627 80.80200551 -24.00630953 81.1103808 -19.75 81.4375 C-19.00492188 81.48970703 -18.25984375 81.54191406 -17.4921875 81.59570312 C-15.66105139 81.7248217 -13.83046187 81.86165114 -12 82 C-12.2165625 81.19175781 -12.433125 80.38351562 -12.65625 79.55078125 C-13.07390625 77.94783203 -13.07390625 77.94783203 -13.5 76.3125 C-13.7784375 75.25675781 -14.056875 74.20101562 -14.34375 73.11328125 C-14.9391715 70.28857328 -15.12786492 67.87163292 -15 65 C-15.66 64.67 -16.32 64.34 -17 64 C-15.948125 63.7525 -15.948125 63.7525 -14.875 63.5 C-10.13649967 61.02773896 -7.30960074 56.92279074 -5.140625 52.08203125 C-1.63025211 40.57844443 -5.9751753 26.61868508 -11.25 16.375 C-11.79140625 15.39273437 -12.3328125 14.41046875 -12.890625 13.3984375 C-13.25671875 12.60695313 -13.6228125 11.81546875 -14 11 C-13.67 10.34 -13.34 9.68 -13 9 C-12.34 9.33 -11.68 9.66 -11 10 C-10.375 13.0625 -10.375 13.0625 -10 16 C-9.38125 16.12375 -8.7625 16.2475 -8.125 16.375 C-6 17 -6 17 -4 19 C-3.67 18.34 -3.34 17.68 -3 17 C-3.33 16.01 -3.66 15.02 -4 14 C-3.07796291 11.63477442 -2.08301035 9.29598193 -1 7 C-0.34 7 0.32 7 1 7 C0.505 3.535 0.505 3.535 0 0 Z " fill="#F66D25" transform="translate(154,247)"/>
<path d="M0 0 C11.6744713 1.70845921 11.6744713 1.70845921 15.4375 5.375 C17 8 17 8 17 12 C17.99 12.33 18.98 12.66 20 13 C20 13.99 20 14.98 20 16 C20.66 16 21.32 16 22 16 C23.80275501 21.33140338 24.24843855 25.71610838 23.875 31.3125 C23.85179687 32.02728516 23.82859375 32.74207031 23.8046875 33.47851562 C23.6796875 35.55078125 23.6796875 35.55078125 23 39 C20.9453125 40.48046875 20.9453125 40.48046875 19 41 C16.23776722 38.23776722 16.42143709 35.79293383 16 32 C15.01 33.32 14.02 34.64 13 36 C12.01 35.67 11.02 35.34 10 35 C9 30 8 25 7 20 C6.34 20 5.68 20 5 20 C5 19.34 5 18.68 5 18 C-0.47568821 17.72157518 -3.41626922 17.72590659 -8 21 C-8.99 21.33 -9.98 21.66 -11 22 C-11.94288183 26.9600338 -12.30248211 31.84514574 -12.5625 36.875 C-12.60568359 37.65875 -12.64886719 38.4425 -12.69335938 39.25 C-12.79853351 41.16650649 -12.89967925 43.08323333 -13 45 C-14.72807318 45.33895656 -16.45751974 45.67091525 -18.1875 46 C-19.15042969 46.185625 -20.11335938 46.37125 -21.10546875 46.5625 C-24 47 -24 47 -29 47 C-28.34 52.28 -27.68 57.56 -27 63 C-29.92969397 58.60545904 -30.12433789 55.37022707 -30.09765625 50.140625 C-30.09443359 49.02558594 -30.09121094 47.91054687 -30.08789062 46.76171875 C-30.07951172 45.60285156 -30.07113281 44.44398438 -30.0625 43.25 C-30.05798828 42.07566406 -30.05347656 40.90132812 -30.04882812 39.69140625 C-30.03705094 36.79421928 -30.02060326 33.89713546 -30 31 C-29.34 31 -28.68 31 -28 31 C-27.896875 30.05125 -27.79375 29.1025 -27.6875 28.125 C-26.68447455 21.27099274 -25.30255208 13.77229687 -20 9 C-13.5750975 4.8043599 -7.5619838 2.23966948 0 1 C0 0.67 0 0.34 0 0 Z M19 16 C20 18 20 18 20 18 Z " fill="#CFCF40" transform="translate(123,113)"/>
<path d="M0 0 C0.66 0 1.32 0 2 0 C2.42410156 0.90621094 2.84820312 1.81242187 3.28515625 2.74609375 C10.19923782 17.22108375 19.26286254 30.42540272 35 36 C38.31275852 36.82126882 41.62978831 37.46526913 45 38 C45.50744423 39.89385437 46.00564574 41.79018666 46.5 43.6875 C46.7784375 44.74324219 47.056875 45.79898438 47.34375 46.88671875 C47.9391715 49.71142672 48.12786492 52.12836708 48 55 C29.67924421 55.40463019 17.4354412 52.74106405 3.46875 39.61328125 C-9 26.41455696 -9 26.41455696 -9 22 C-6 23 -6 23 -4 24.5625 C-2.00449357 26.29181802 -2.00449357 26.29181802 1 26 C1.33 24.35 1.66 22.7 2 21 C3.32 20.67 4.64 20.34 6 20 C5.55090939 18.51800098 5.09043436 17.03944764 4.625 15.5625 C4.36976562 14.73878906 4.11453125 13.91507812 3.8515625 13.06640625 C3.19117773 10.82201984 3.19117773 10.82201984 1 10 C0.66666667 8.66666667 0.33333333 7.33333333 0 6 C-0.66 5.67 -1.32 5.34 -2 5 C-1.67 4.34 -1.34 3.68 -1 3 C-0.34 3.33 0.32 3.66 1 4 C0.67 2.68 0.34 1.36 0 0 Z " fill="#F0CCE5" transform="translate(94,274)"/>
<path d="M0 0 C0.99 0.66 1.98 1.32 3 2 C3 2.99 3 3.98 3 5 C3.721875 4.484375 4.44375 3.96875 5.1875 3.4375 C8 2 8 2 10.6875 2.25 C13 3 13 3 15 4 C17.31006744 4.1230891 19.62418636 4.1755634 21.9375 4.1875 C23.80728516 4.20876953 23.80728516 4.20876953 25.71484375 4.23046875 C29.14276297 4.26240498 29.14276297 4.26240498 32 2 C35.3 3.65 38.6 5.3 42 7 C41.34 8.32 40.68 9.64 40 11 C40.31126713 14.68203915 40.31126713 14.68203915 41 18 C32.90603481 24.62663817 23.84989984 23.47815048 14 23 C14 22.01 14 21.02 14 20 C12.01432292 19.8046875 10.02864583 19.609375 8.04296875 19.4140625 C6 19 6 19 3 17 C3 16.01 3 15.02 3 14 C1.824375 13.8453125 1.824375 13.8453125 0.625 13.6875 C-2 13 -2 13 -4 10 C-3.66947207 3.83014537 -3.66947207 3.83014537 -1.4375 1.0625 C-0.7259375 0.5365625 -0.7259375 0.5365625 0 0 Z " fill="#D0CE42" transform="translate(161,181)"/>
<path d="M0 0 C6.59988473 6.74988211 8.77197785 13.66180206 11.16699219 22.69384766 C12.28659859 26.76250106 13.55113405 30.78599612 14.8125 34.8125 C15.05798584 35.61341064 15.30347168 36.41432129 15.55639648 37.23950195 C16.94670807 41.6712657 18.62132744 45.66885252 20.75 49.8125 C20.75 50.4725 20.75 51.1325 20.75 51.8125 C20.09 51.8125 19.43 51.8125 18.75 51.8125 C17.2893715 49.16511084 16.75 47.91801666 16.75 44.8125 C15.76 44.8125 14.77 44.8125 13.75 44.8125 C13.75 43.4925 13.75 42.1725 13.75 40.8125 C13.09 40.8125 12.43 40.8125 11.75 40.8125 C9.14981184 36.91221775 9.59914486 33.33815431 9.75 28.8125 C9.09 28.8125 8.43 28.8125 7.75 28.8125 C6.76 21.3875 6.76 21.3875 5.75 13.8125 C5.09 13.8125 4.43 13.8125 3.75 13.8125 C3.255 12.3275 3.255 12.3275 2.75 10.8125 C2.09 10.4825 1.43 10.1525 0.75 9.8125 C0.275625 8.678125 -0.19875 7.54375 -0.6875 6.375 C-1.95190988 2.62181887 -1.95190988 2.62181887 -5.25 0.8125 C-6.96444889 0.37511304 -8.69667784 0.00401312 -10.4375 -0.3125 C-11.33855469 -0.48007813 -12.23960938 -0.64765625 -13.16796875 -0.8203125 C-14.19857422 -1.00207031 -14.19857422 -1.00207031 -15.25 -1.1875 C-15.25 -0.8575 -15.25 -0.5275 -15.25 -0.1875 C-16.14138672 -0.07535156 -16.14138672 -0.07535156 -17.05078125 0.0390625 C-24.64661329 1.24400009 -32.66029229 3.85566309 -37.96875 9.70703125 C-39.3610954 11.99506226 -40.10168524 14.04575787 -40.8125 16.625 C-41.17988281 17.93017578 -41.17988281 17.93017578 -41.5546875 19.26171875 C-41.89886719 20.52435547 -41.89886719 20.52435547 -42.25 21.8125 C-42.64436846 23.18792086 -43.03998268 24.5629859 -43.4375 25.9375 C-43.705625 26.88625 -43.97375 27.835 -44.25 28.8125 C-44.91 28.8125 -45.57 28.8125 -46.25 28.8125 C-46.25 35.7425 -46.25 42.6725 -46.25 49.8125 C-46.58 49.8125 -46.91 49.8125 -47.25 49.8125 C-49.88021472 36.64021499 -49.74602872 21.46189066 -43.0625 9.5625 C-37.95706295 2.09598996 -31.4451718 -2.44014385 -22.8125 -4.875 C-14.17629621 -5.92819558 -7.29235925 -4.90831872 0 0 Z " fill="#D2D372" transform="translate(139.25,115.1875)"/>
<path d="M0 0 C3.23179164 3.54663667 4.16172848 7.49934364 5.1875 12.0625 C5.35967041 12.82328857 5.53184082 13.58407715 5.70922852 14.36791992 C8.33187048 26.60216223 7.56041595 38.27280309 1.1875 49.3125 C0.14870692 50.89086036 -0.91245628 52.4548265 -2 54 C-2.41765625 54.63679688 -2.8353125 55.27359375 -3.265625 55.9296875 C-8.0584468 62.42598211 -17.03139121 67.67462564 -25 69 C-31.05418068 69.43606327 -36.27081834 68.99275884 -42 67 C-37.85340627 65.80200551 -34.00630953 66.1103808 -29.75 66.4375 C-29.00492188 66.48970703 -28.25984375 66.54191406 -27.4921875 66.59570312 C-25.66105139 66.7248217 -23.83046187 66.86165114 -22 67 C-22.2165625 66.19175781 -22.433125 65.38351562 -22.65625 64.55078125 C-23.07390625 62.94783203 -23.07390625 62.94783203 -23.5 61.3125 C-23.7784375 60.25675781 -24.056875 59.20101562 -24.34375 58.11328125 C-24.9391715 55.28857328 -25.12786492 52.87163292 -25 50 C-25.66 49.67 -26.32 49.34 -27 49 C-25.948125 48.7525 -25.948125 48.7525 -24.875 48.5 C-20.13649967 46.02773896 -17.30960074 41.92279074 -15.140625 37.08203125 C-13.40262154 31.38654694 -14.20695711 25.80990116 -15 20 C-15.09796875 19.25492187 -15.1959375 18.50984375 -15.296875 17.7421875 C-15.51478917 16.15910514 -15.75437465 14.57902012 -16 13 C-13.5625 13.375 -13.5625 13.375 -11 14 C-9.20940193 17.58119613 -9.81530654 21.74431683 -9.8125 25.6875 C-9.80025391 26.57373047 -9.78800781 27.45996094 -9.77539062 28.37304688 C-9.75912826 35.69653079 -10.58980785 41.89358009 -15 48 C-18.4137931 51 -18.4137931 51 -21 51 C-20.67 54.63 -20.34 58.26 -20 62 C-16.10209457 62.36259585 -14.47888346 62.34827888 -11.25 60 C-10.5075 59.34 -9.765 58.68 -9 58 C-8.34 58 -7.68 58 -7 58 C-7 57.01 -7 56.02 -7 55 C-6.34 55 -5.68 55 -5 55 C-5 54.01 -5 53.02 -5 52 C-4.01 52 -3.02 52 -2 52 C-1.01 48.7 -0.02 45.4 1 42 C1.66 42 2.32 42 3 42 C3 31.44 3 20.88 3 10 C2.34 10 1.68 10 1 10 C-0.60725635 6.78548731 -0.05748185 3.56387464 0 0 Z " fill="#A66C38" transform="translate(164,262)"/>
<path d="M0 0 C0.20496094 0.83144531 0.40992187 1.66289062 0.62109375 2.51953125 C0.89050781 3.60621094 1.15992187 4.69289062 1.4375 5.8125 C1.83775391 7.43091797 1.83775391 7.43091797 2.24609375 9.08203125 C2.76077412 11.0740843 3.34937175 13.04811524 4 15 C4.03954234 17.33299825 4.04401732 19.66708189 4 22 C4.99 22 5.98 22 7 22 C7 23.98 7 25.96 7 28 C6.01 28.33 5.02 28.66 4 29 C3.67 29.99 3.34 30.98 3 32 C-0.465 32.495 -0.465 32.495 -4 33 C-4 31.35 -4 29.7 -4 28 C-4.99 27.67 -5.98 27.34 -7 27 C-8.1233809 24.66336772 -9.08563423 22.41247917 -10 20 C-10.556875 18.7934375 -10.556875 18.7934375 -11.125 17.5625 C-11.93058159 15.20329678 -12.27828258 13.21176015 -12.5625 10.75 C-12.58237411 7.21082486 -12.58237411 7.21082486 -14 6 C-14.04063832 4.33382885 -14.042721 2.66611905 -14 1 C-12.60459859 0.82975495 -11.20865091 0.6639851 -9.8125 0.5 C-9.03519531 0.4071875 -8.25789063 0.314375 -7.45703125 0.21875 C-4.95763614 -0.00377166 -2.50786754 -0.03563577 0 0 Z " fill="#F86C24" transform="translate(109,160)"/>
<path d="M0 0 C0.66 0 1.32 0 2 0 C2.42410156 0.90621094 2.84820312 1.81242187 3.28515625 2.74609375 C9.88406122 16.56124511 18.22534613 28.9506651 32.81640625 35.0703125 C34.92484659 35.96800266 36.96115173 36.95514805 39 38 C36.8125 38.6875 36.8125 38.6875 34 39 C33.2575 38.54625 32.515 38.0925 31.75 37.625 C28.00684469 35.4131355 24.3186682 35.03393845 20 35 C19.01 35.495 19.01 35.495 18 36 C18.33 34.68 18.66 33.36 19 32 C18.34 31.67 17.68 31.34 17 31 C17 30.34 17 29.68 17 29 C14.6984589 28.22197813 14.6984589 28.22197813 12 28 C9.80961577 29.37168238 9.80961577 29.37168238 8 31 C7.34 31 6.68 31 6 31 C6 32.98 6 34.96 6 37 C7.485 36.505 7.485 36.505 9 36 C9.33 36.99 9.66 37.98 10 39 C8.515 39.495 8.515 39.495 7 40 C7 40.99 7 41.98 7 43 C0.84070007 37.28299022 -4.49512174 31.11674916 -9 24 C-9 23.34 -9 22.68 -9 22 C-6 23 -6 23 -4 24.5625 C-2.00449357 26.29181802 -2.00449357 26.29181802 1 26 C1.33 24.35 1.66 22.7 2 21 C3.32 20.67 4.64 20.34 6 20 C5.55090939 18.51800098 5.09043436 17.03944764 4.625 15.5625 C4.36976562 14.73878906 4.11453125 13.91507812 3.8515625 13.06640625 C3.19117773 10.82201984 3.19117773 10.82201984 1 10 C0.66666667 8.66666667 0.33333333 7.33333333 0 6 C-0.66 5.67 -1.32 5.34 -2 5 C-1.67 4.34 -1.34 3.68 -1 3 C-0.34 3.33 0.32 3.66 1 4 C0.67 2.68 0.34 1.36 0 0 Z " fill="#EED0E7" transform="translate(94,274)"/>
<path d="M0 0 C7.02418256 3.0345701 11.86495143 10.22829508 15 17 C15.06079914 18.99907565 15.06998512 21.00122485 15 23 C12.91891315 23.67364661 10.8350329 24.33866798 8.75 25 C7.58984375 25.37125 6.4296875 25.7425 5.234375 26.125 C2 27 2 27 -2 27 C-2 26.34 -2 25.68 -2 25 C-2.66 25 -3.32 25 -4 25 C-5.61341433 23.02705044 -7.01831805 20.94530349 -8.46484375 18.84765625 C-9.95699606 16.72122729 -9.95699606 16.72122729 -13 16 C-13.99 16.99 -14.98 17.98 -16 19 C-15.67 17.35 -15.34 15.7 -15 14 C-12.36 14.33 -9.72 14.66 -7 15 C-6.67 14.34 -6.34 13.68 -6 13 C-5.67 13.33 -5.34 13.66 -5 14 C-4.67 13.34 -4.34 12.68 -4 12 C-3.34 12 -2.68 12 -2 12 C-1.67 10.68 -1.34 9.36 -1 8 C-0.01 9.32 0.98 10.64 2 12 C1.67039784 6.98464948 1.67039784 6.98464948 -1 3 C-0.34 3 0.32 3 1 3 C0.67 2.01 0.34 1.02 0 0 Z " fill="#1F6D55" transform="translate(218,116)"/>
<path d="M0 0 C0.66 0.33 1.32 0.66 2 1 C2 1.66 2 2.32 2 3 C2.66 3 3.32 3 4 3 C6.23940314 7.79872101 7.0560864 12.82855847 8 18 C10.99332739 17.0022242 11.94766315 16.2477975 14 14 C14.16276042 16.01822917 14.32552083 18.03645833 14.48828125 20.0546875 C14.87393036 22.39519216 14.87393036 22.39519216 18 24 C18.1875 27.125 18.1875 27.125 18 30 C16.68 29.67 15.36 29.34 14 29 C14.16031365 35.84976496 15.52880585 40.86757572 18.84375 46.87109375 C20 49 20 49 21 52 C21.66 52 22.32 52 23 52 C24.6875 54.375 24.6875 54.375 26 57 C25.505 57.99 25.505 57.99 25 59 C12.71394378 44.88410562 6.40464339 26.53666418 2.8359375 8.3828125 C1.79245095 5.40838821 0.44214202 3.96462822 -2 2 C-5.17199493 1.86502149 -7.05576369 2.15170214 -9.4609375 4.3125 C-13.83422041 9.36831839 -14.22065711 13.77094092 -14.5625 20.1875 C-14.60568359 20.93708984 -14.64886719 21.68667969 -14.69335938 22.45898438 C-14.79922685 24.30578375 -14.9000976 26.15286834 -15 28 C-15.33 28 -15.66 28 -16 28 C-16.05429278 25.29139335 -16.09381211 22.58389099 -16.125 19.875 C-16.14175781 19.11445313 -16.15851563 18.35390625 -16.17578125 17.5703125 C-16.21525808 12.9910001 -15.88502256 9.26542647 -14 5 C-9.50998127 0.74023864 -6.11899628 -0.26038282 0 0 Z " fill="#D7D66A" transform="translate(126,130)"/>
<path d="M0 0 C6.59988473 6.74988211 8.77197785 13.66180206 11.16699219 22.69384766 C12.28659859 26.76250106 13.55113405 30.78599612 14.8125 34.8125 C15.05798584 35.61341064 15.30347168 36.41432129 15.55639648 37.23950195 C16.94670807 41.6712657 18.62132744 45.66885252 20.75 49.8125 C20.75 50.4725 20.75 51.1325 20.75 51.8125 C20.09 51.8125 19.43 51.8125 18.75 51.8125 C17.2893715 49.16511084 16.75 47.91801666 16.75 44.8125 C15.76 44.8125 14.77 44.8125 13.75 44.8125 C13.75 43.4925 13.75 42.1725 13.75 40.8125 C13.09 40.8125 12.43 40.8125 11.75 40.8125 C9.14981184 36.91221775 9.59914486 33.33815431 9.75 28.8125 C9.09 28.8125 8.43 28.8125 7.75 28.8125 C6.76 21.3875 6.76 21.3875 5.75 13.8125 C5.09 13.8125 4.43 13.8125 3.75 13.8125 C3.42 12.8225 3.09 11.8325 2.75 10.8125 C2.09 10.4825 1.43 10.1525 0.75 9.8125 C-0.28101947 7.49270619 -1.27936517 5.15820085 -2.25 2.8125 C-4.42611027 -0.45166541 -5.50715589 -0.91405402 -9.19970703 -1.83886719 C-12.86124586 -2.46147703 -16.48463126 -2.3949975 -20.1875 -2.3125 C-20.96673828 -2.30347656 -21.74597656 -2.29445313 -22.54882812 -2.28515625 C-24.44935447 -2.26183691 -26.34972008 -2.22597586 -28.25 -2.1875 C-19.5061956 -8.01670294 -8.23750936 -5.54447745 0 0 Z " fill="#DCDD86" transform="translate(139.25,115.1875)"/>
<path d="M0 0 C0.37125 1.155 0.7425 2.31 1.125 3.5 C2.19026242 6.73198549 3.34151114 9.91726231 4.5703125 13.08984375 C4.84601074 13.80527344 5.12170898 14.52070313 5.40576172 15.2578125 C5.96603265 16.70434196 6.53271685 18.14840465 7.10595703 19.58984375 C7.79447256 21.37218636 8.40397264 23.18463497 9 25 C8.67 25.66 8.34 26.32 8 27 C7.01 26.67 6.02 26.34 5 26 C5 25.34 5 24.68 5 24 C4.01 24 3.02 24 2 24 C1.79503906 23.01257813 1.59007813 22.02515625 1.37890625 21.0078125 C1.10949219 19.72648437 0.84007813 18.44515625 0.5625 17.125 C0.29566406 15.84882813 0.02882813 14.57265625 -0.24609375 13.2578125 C-0.8347826 10.13539756 -0.8347826 10.13539756 -2 8 C-2.039992 6.00039988 -2.04346799 3.99952758 -2 2 C-2.639375 2.165 -3.27875 2.33 -3.9375 2.5 C-7.97586652 3.15932515 -11.91807258 3.08003779 -16 3 C-15.690625 3.825 -15.38125 4.65 -15.0625 5.5 C-14 9 -14 9 -13.625 12.75 C-13.05342008 18.04732109 -11.43037975 24.79801739 -7.37890625 28.46875 C-5.39556525 30.67121366 -5.69937692 32.28400758 -5.8125 35.1875 C-5.83957031 36.08855469 -5.86664063 36.98960937 -5.89453125 37.91796875 C-5.92933594 38.60503906 -5.96414062 39.29210937 -6 40 C-8.51407343 38.74296329 -8.63471044 37.91943013 -9.65625 35.3515625 C-9.95587646 34.59858887 -10.25550293 33.84561523 -10.56420898 33.06982422 C-10.87302002 32.26303223 -11.18183105 31.45624023 -11.5 30.625 C-11.81461182 29.80660645 -12.12922363 28.98821289 -12.45336914 28.14501953 C-15.71544144 19.42837684 -17.35157481 11.31673237 -17 2 C-11.23918159 0.7017874 -5.91260345 -0.25706972 0 0 Z " fill="#DF7830" transform="translate(111,158)"/>
<path d="M0 0 C2.4375 0.375 2.4375 0.375 5 1 C6.79059807 4.58119613 6.18469346 8.74431683 6.1875 12.6875 C6.19974609 13.57373047 6.21199219 14.45996094 6.22460938 15.37304688 C6.24087174 22.69653079 5.41019215 28.89358009 1 35 C-2.4137931 38 -2.4137931 38 -5 38 C-5 41.3 -5 44.6 -5 48 C-7 44 -7 44 -7 42 C-7.66 42 -8.32 42 -9 42 C-9 40.35 -9 38.7 -9 37 C-9.66 36.67 -10.32 36.34 -11 36 C-9.948125 35.7525 -9.948125 35.7525 -8.875 35.5 C-4.13649967 33.02773896 -1.30960074 28.92279074 0.859375 24.08203125 C2.59737846 18.38654694 1.79304289 12.80990116 1 7 C0.90203125 6.25492187 0.8040625 5.50984375 0.703125 4.7421875 C0.48521083 3.15910514 0.24562535 1.57902012 0 0 Z " fill="#945E2B" transform="translate(148,275)"/>
<path d="M0 0 C2.63493373 3.2657209 4.46936664 6.70528793 6.375 10.4375 C12.68352083 22.51828726 20.12542554 33.95599025 27.46875 45.42578125 C28.29584473 46.72177246 28.29584473 46.72177246 29.13964844 48.04394531 C30.18961243 49.68606607 31.24471595 51.32491536 32.30566406 52.95996094 C32.77713867 53.69633789 33.24861328 54.43271484 33.734375 55.19140625 C34.35650879 56.15348999 34.35650879 56.15348999 34.99121094 57.13500977 C36.04279589 59.07911853 36.56092665 60.84142208 37 63 C33.34683329 61.75023244 32.21934164 61.32901247 30 58 C29.855625 57.154375 29.71125 56.30875 29.5625 55.4375 C29.21178049 52.64573325 29.21178049 52.64573325 26 51 C25.525625 49.88625 25.05125 48.7725 24.5625 47.625 C23.27861077 44.03230439 23.27861077 44.03230439 21 42 C17.67182803 38.67182803 16.46504021 34.39512062 15 30 C14.01 29.67 13.02 29.34 12 29 C10.62665383 26.71108972 9.84749184 24.54247553 9 22 C8.34 22 7.68 22 7 22 C7.33 20.02 7.66 18.04 8 16 C7.34 16 6.68 16 6 16 C1.88388957 11.11211886 0.93576346 6.23021458 0 0 Z " fill="#E89B69" transform="translate(120,185)"/>
<path d="M0 0 C3.87694979 5.81542468 3.75187122 12.82647756 2.5390625 19.55859375 C1.04972637 25.31443985 -1.22613375 30.24555311 -6 34 C-6.99 34 -7.98 34 -9 34 C-9 32.02 -9 30.04 -9 28 C-9.66 27.67 -10.32 27.34 -11 27 C-10.01 26.67 -9.02 26.34 -8 26 C-8 25.34 -8 24.68 -8 24 C-11.3 22.68 -14.6 21.36 -18 20 C-18.66 20.66 -19.32 21.32 -20 22 C-26.03550144 22.66545272 -31.94067252 22.95611633 -37.5 20.375 C-40.39197817 17.62762074 -43.24513376 14.88605034 -46 12 C-45.67 11.34 -45.34 10.68 -45 10 C-44.56429687 10.47050781 -44.12859375 10.94101563 -43.6796875 11.42578125 C-38.78506794 16.54288352 -34.78197292 20.07150938 -27.4375 20.375 C-23.53030637 20.41678817 -21.00929978 19.54270103 -18 17 C-17.39442058 13.80624623 -17.39442058 13.80624623 -17.6875 10.3125 C-17.73261719 9.13300781 -17.77773437 7.95351562 -17.82421875 6.73828125 C-17.88222656 5.83464844 -17.94023437 4.93101562 -18 4 C-16 6 -16 6 -15.8046875 8.8203125 C-15.82789063 9.91085938 -15.85109375 11.00140625 -15.875 12.125 C-15.89304688 13.22070312 -15.91109375 14.31640625 -15.9296875 15.4453125 C-15.95289063 16.28835937 -15.97609375 17.13140625 -16 18 C-15.21625 18.2475 -14.4325 18.495 -13.625 18.75 C-9.02371944 20.33664847 -4.51904362 22.19238255 0 24 C0 16.08 0 8.16 0 0 Z " fill="#CEDA88" transform="translate(210,164)"/>
<path d="M0 0 C2.79740631 3.4257468 4.74297935 7.17814341 6.6875 11.125 C7.03200195 11.82367188 7.37650391 12.52234375 7.73144531 13.2421875 C8.83057692 15.49027535 9.91724612 17.74398192 11 20 C11.35852051 20.74217773 11.71704102 21.48435547 12.08642578 22.24902344 C19.30549662 37.33061118 24.44003072 51.02587325 22 68 C21.67 68 21.34 68 21 68 C20.97421875 67.30777344 20.9484375 66.61554688 20.921875 65.90234375 C20.13039902 52.24938312 16.18374206 36.36748413 10 24 C9.01 23.67 8.02 23.34 7 23 C6.26953125 21.15234375 6.26953125 21.15234375 5.8125 18.9375 C5.65394531 18.20402344 5.49539063 17.47054687 5.33203125 16.71484375 C5.22246094 16.14894531 5.11289062 15.58304688 5 15 C3.68 15.33 2.36 15.66 1 16 C1.020625 15.030625 1.04125 14.06125 1.0625 13.0625 C1.35618499 10.12534105 1.35618499 10.12534105 0 9 C-0.07179964 7.48071962 -0.08392007 5.95832518 -0.0625 4.4375 C-0.05347656 3.61121094 -0.04445312 2.78492187 -0.03515625 1.93359375 C-0.02355469 1.29550781 -0.01195312 0.65742187 0 0 Z " fill="#68AFCC" transform="translate(255,83)"/>
<path d="M0 0 C6.27 0 12.54 0 19 0 C19.495 2.475 19.495 2.475 20 5 C19.34 5 18.68 5 18 5 C18 4.34 18 3.68 18 3 C12.52431179 2.72157518 9.58373078 2.72590659 5 6 C4.01 6.33 3.02 6.66 2 7 C1.05711817 11.9600338 0.69751789 16.84514574 0.4375 21.875 C0.39431641 22.65875 0.35113281 23.4425 0.30664062 24.25 C0.20146649 26.16650649 0.10032075 28.08323333 0 30 C-1.72807318 30.33895656 -3.45751974 30.67091525 -5.1875 31 C-6.15042969 31.185625 -7.11335938 31.37125 -8.10546875 31.5625 C-11 32 -11 32 -16 32 C-15.34 37.28 -14.68 42.56 -14 48 C-17.05750586 43.4137412 -17.15658557 39.85303701 -17.1875 34.375 C-17.20876953 32.65410156 -17.20876953 32.65410156 -17.23046875 30.8984375 C-17 28 -17 28 -15 26 C-15 26.66 -15 27.32 -15 28 C-10.71 28 -6.42 28 -2 28 C-2.01160156 26.85660156 -2.02320312 25.71320313 -2.03515625 24.53515625 C-2.04453288 23.04427246 -2.05363321 21.55338691 -2.0625 20.0625 C-2.07087891 19.30775391 -2.07925781 18.55300781 -2.08789062 17.77539062 C-2.09652441 15.85005687 -2.05224333 13.92464419 -2 12 C-1.67 11.67 -1.34 11.34 -1 11 C-0.76636119 9.15108054 -0.58696365 7.29511969 -0.4375 5.4375 C-0.293125 3.643125 -0.14875 1.84875 0 0 Z " fill="#CDCE57" transform="translate(110,128)"/>
<path d="M0 0 C0.33 0 0.66 0 1 0 C1.99 4.29 2.98 8.58 4 13 C3.34 12.67 2.68 12.34 2 12 C2 11.01 2 10.02 2 9 C1.34 9 0.68 9 0 9 C0 8.34 0 7.68 0 7 C-3.96 7.99 -7.92 8.98 -12 10 C-12 11.98 -12 13.96 -12 16 C-11.67 16.33 -11.34 16.66 -11 17 C-10.95907063 19.33297433 -10.95758277 21.66705225 -11 24 C-10.34 24.33 -9.68 24.66 -9 25 C-7.3125 27.9375 -7.3125 27.9375 -6 31 C-6.33 31.66 -6.66 32.32 -7 33 C-11.99633667 25.54841885 -15.72789462 17.69278128 -18 9 C-17.67 8.01 -17.34 7.02 -17 6 C-17 6.66 -17 7.32 -17 8 C-16.10796875 7.71125 -15.2159375 7.4225 -14.296875 7.125 C-13.12640625 6.75375 -11.9559375 6.3825 -10.75 6 C-9.58984375 5.62875 -8.4296875 5.2575 -7.234375 4.875 C-4 4 -4 4 0 4 C0 2.68 0 1.36 0 0 Z " fill="#5EABC6" transform="translate(233,135)"/>
<path d="M0 0 C0.66 0.33 1.32 0.66 2 1 C2 1.66 2 2.32 2 3 C2.66 3 3.32 3 4 3 C5.49562947 6.20492029 6.29705327 9.29481683 6.9375 12.75 C7.56623359 16.10159558 8.35300604 19.22706967 9.5 22.4375 C11.29177571 27.51268197 12.15739824 32.69656541 13 38 C10.08622589 35.08622589 9.30761912 31.46314393 8.0625 27.625 C7.79453613 26.81659668 7.52657227 26.00819336 7.25048828 25.17529297 C5.44456339 19.63866401 3.9602344 14.10206197 2.8359375 8.3828125 C1.79245095 5.40838821 0.44214202 3.96462822 -2 2 C-5.17199493 1.86502149 -7.05576369 2.15170214 -9.4609375 4.3125 C-13.83422041 9.36831839 -14.22065711 13.77094092 -14.5625 20.1875 C-14.60568359 20.93708984 -14.64886719 21.68667969 -14.69335938 22.45898438 C-14.79922685 24.30578375 -14.9000976 26.15286834 -15 28 C-15.33 28 -15.66 28 -16 28 C-16.05429278 25.29139335 -16.09381211 22.58389099 -16.125 19.875 C-16.14175781 19.11445313 -16.15851563 18.35390625 -16.17578125 17.5703125 C-16.21525808 12.9910001 -15.88502256 9.26542647 -14 5 C-9.50998127 0.74023864 -6.11899628 -0.26038282 0 0 Z " fill="#ECEBA6" transform="translate(126,130)"/>
<path d="M0 0 C0 0.66 0 1.32 0 2 C-1.65 2.66 -3.3 3.32 -5 4 C-5.30557282 7.0557282 -5.42818807 9.95230847 -5 13 C-4.175 13.969375 -3.35 14.93875 -2.5 15.9375 C0.98710049 20.2091981 0.47217727 23.69062896 0 29 C-5.03353512 22.50372818 -7.57984321 16.07247019 -9 8 C-9.33 8 -9.66 8 -10 8 C-10 6.02 -10 4.04 -10 2 C-8.71211992 1.46987262 -7.41953322 0.9511671 -6.125 0.4375 C-5.40570313 0.14746094 -4.68640625 -0.14257812 -3.9453125 -0.44140625 C-2 -1 -2 -1 0 0 Z " fill="#308FC4" transform="translate(250,86)"/>
<path d="M0 0 C0.66 0 1.32 0 2 0 C2.33 1.32 2.66 2.64 3 4 C3.99 4 4.98 4 6 4 C6.66 5.65 7.32 7.3 8 9 C8.66 9 9.32 9 10 9 C10 9.66 10 10.32 10 11 C10.66 11 11.32 11 12 11 C12.33 13.64 12.66 16.28 13 19 C13.78375 19.2475 14.5675 19.495 15.375 19.75 C18 21 18 21 19.3125 22.6875 C20.2478171 25.83356663 20.12541365 28.73924509 20 32 C16.79158191 28.19045617 14.19298593 24.16400569 11.6875 19.875 C8.31127643 14.16095795 4.83405165 8.54078689 1.21484375 2.9765625 C0 1 0 1 0 0 Z " fill="#E39363" transform="translate(120,224)"/>
<path d="M0 0 C1.75211782 0.25677589 3.50167936 0.53102953 5.25 0.8125 C6.22453125 0.96332031 7.1990625 1.11414063 8.203125 1.26953125 C11.15734617 2.0410946 12.66327623 3.09359367 15 5 C16.99571323 5.67939174 18.99594773 6.34561559 21 7 C22.69207001 7.9563874 24.36816893 8.94410931 26 10 C20.07997427 11.79715067 15.18707324 10.10415348 9.78125 7.375 C1.25 2.5 1.25 2.5 0 0 Z " fill="#E6D4E4" transform="translate(104,318)"/>
<path d="M0 0 C4.23429756 1.31061591 8.07407404 2.94356259 12 5 C12 5.99 12 6.98 12 8 C17.445 9.485 17.445 9.485 23 11 C23 11.99 23 12.98 23 14 C27.62 14 32.24 14 37 14 C37 14.33 37 14.66 37 15 C23.18886541 15.66293446 14.84752149 13.81892199 4.03125 4.90234375 C2 3 2 3 0 0 Z " fill="#E0DF91" transform="translate(152,190)"/>
<path d="M0 0 C0.66 0.33 1.32 0.66 2 1 C1.01 1.33 0.02 1.66 -1 2 C-1.268125 2.598125 -1.53625 3.19625 -1.8125 3.8125 C-3 6 -3 6 -5.8125 7.625 C-11.8879097 12.15177585 -14.11038334 19.20383599 -15.625 26.42456055 C-16.33354197 31.29071238 -16.20547814 36.15642864 -16.125 41.0625 C-16.11597656 42.11888672 -16.10695313 43.17527344 -16.09765625 44.26367188 C-16.0743167 46.84269253 -16.04157775 49.4212199 -16 52 C-16.33 52 -16.66 52 -17 52 C-19.63021472 38.82771499 -19.49602872 23.64939066 -12.8125 11.75 C-9.61334357 7.01954004 -5.13954217 2.56977109 0 0 Z " fill="#EFE8AC" transform="translate(109,113)"/>
<path d="M0 0 C0.33 0 0.66 0 1 0 C1.04125 0.763125 1.0825 1.52625 1.125 2.3125 C1.78275377 5.24979209 1.78275377 5.24979209 4.6875 6.875 C8.34002358 8.11547971 10.31339804 7.96553861 14 7 C14.93423645 10.01031744 15.04449911 10.86650268 14 14 C7.97229862 13.52412884 3.23321711 10.80277043 -2 8 C-1.125 2.25 -1.125 2.25 0 0 Z " fill="#105E3D" transform="translate(196,174)"/>
<path d="M0 0 C0.66 0 1.32 0 2 0 C2.47050781 0.96421875 2.94101563 1.9284375 3.42578125 2.921875 C4.05447179 4.19802296 4.68339007 5.47405874 5.3125 6.75 C5.62123047 7.38421875 5.92996094 8.0184375 6.24804688 8.671875 C7.91785767 12.0466505 9.72913897 15.00945071 12 18 C12 18.66 12 19.32 12 20 C10.02 20.99 10.02 20.99 8 22 C7.49339844 20.82630859 7.49339844 20.82630859 6.9765625 19.62890625 C6.53054687 18.61699219 6.08453125 17.60507812 5.625 16.5625 C4.96371094 15.04849609 4.96371094 15.04849609 4.2890625 13.50390625 C3.24923714 10.87856453 3.24923714 10.87856453 1 10 C0.66666667 8.66666667 0.33333333 7.33333333 0 6 C-0.66 5.67 -1.32 5.34 -2 5 C-1.67 4.34 -1.34 3.68 -1 3 C-0.34 3.33 0.32 3.66 1 4 C0.67 2.68 0.34 1.36 0 0 Z " fill="#A8B1B9" transform="translate(94,274)"/>
<path d="M0 0 C5.56892198 7.00283603 9.65364538 14.99477988 10 24 C9.01 23.67 8.02 23.34 7 23 C6.26953125 21.15234375 6.26953125 21.15234375 5.8125 18.9375 C5.65394531 18.20402344 5.49539063 17.47054687 5.33203125 16.71484375 C5.22246094 16.14894531 5.11289062 15.58304688 5 15 C3.68 15.33 2.36 15.66 1 16 C1.020625 15.030625 1.04125 14.06125 1.0625 13.0625 C1.35618499 10.12534105 1.35618499 10.12534105 0 9 C-0.07179964 7.48071962 -0.08392007 5.95832518 -0.0625 4.4375 C-0.05347656 3.61121094 -0.04445312 2.78492187 -0.03515625 1.93359375 C-0.02355469 1.29550781 -0.01195312 0.65742187 0 0 Z " fill="#5AADD2" transform="translate(255,83)"/>
<path d="M0 0 C1.70840281 1.63412443 2.93453047 2.86906094 4 5 C4.039992 6.99960012 4.04346799 9.00047242 4 11 C1.91891315 11.67364661 -0.1649671 12.33866798 -2.25 13 C-3.41015625 13.37125 -4.5703125 13.7425 -5.765625 14.125 C-9 15 -9 15 -13 15 C-13 14.34 -13 13.68 -13 13 C-13.66 13 -14.32 13 -15 13 C-15.66 11.35 -16.32 9.7 -17 8 C-15.515 8.99 -15.515 8.99 -14 10 C-14 10.66 -14 11.32 -14 12 C-13.39671875 11.855625 -12.7934375 11.71125 -12.171875 11.5625 C-11.37265625 11.376875 -10.5734375 11.19125 -9.75 11 C-8.56664062 10.7215625 -8.56664062 10.7215625 -7.359375 10.4375 C-5 10 -5 10 -1 10 C-1 9.34 -1 8.68 -1 8 C-0.34 7.67 0.32 7.34 1 7 C0.67 4.69 0.34 2.38 0 0 Z " fill="#1E7376" transform="translate(229,128)"/>
<path d="M0 0 C0.33 0 0.66 0 1 0 C2.81344335 8.07953776 3.23658921 15.73252149 3 24 C3.33 23.01 3.66 22.02 4 21 C4.33 21 4.66 21 5 21 C5.48842105 28.32631579 5.48842105 28.32631579 3.1875 31.5 C1 33 1 33 -2 33 C-4.00309329 33.31421071 -6.00371336 33.6451046 -8 34 C-7.01 33.34 -6.02 32.68 -5 32 C-1.19185828 28.65345122 0.72521788 25.59426646 1.265625 20.4921875 C1.22993293 14.51376499 0.60696443 8.96416267 -0.66015625 3.1171875 C-0.77230469 2.41851562 -0.88445312 1.71984375 -1 1 C-0.67 0.67 -0.34 0.34 0 0 Z " fill="#71BDDF" transform="translate(256,125)"/>
<path d="M0 0 C1.97302469 3.60807756 3.22648197 7.41862216 4.5 11.3125 C4.71269531 11.95123047 4.92539063 12.58996094 5.14453125 13.24804688 C6.53932035 17.47092062 7.80316369 21.71687747 9 26 C7.68 25.67 6.36 25.34 5 25 C5 24.34 5 23.68 5 23 C4.01 23 3.02 23 2 23 C2.04125 21.824375 2.0825 20.64875 2.125 19.4375 C2.13557444 16.42907198 1.84684445 14.46395556 1 11.5 C-0.1655276 7.42065339 -0.14808099 4.22030821 0 0 Z " fill="#EA9661" transform="translate(111,159)"/>
<path d="M0 0 C0.99 0.495 0.99 0.495 2 1 C2 1.66 2 2.32 2 3 C3.2065625 3.309375 3.2065625 3.309375 4.4375 3.625 C5.283125 4.07875 6.12875 4.5325 7 5 C7.8125 8.125 7.8125 8.125 8 11 C8.99 11 9.98 11 11 11 C11.13277344 11.60328125 11.26554687 12.2065625 11.40234375 12.828125 C11.57894531 13.62734375 11.75554687 14.4265625 11.9375 15.25 C12.11152344 16.03890625 12.28554687 16.8278125 12.46484375 17.640625 C12.947556 19.76878703 13.46163178 21.88532842 14 24 C9.718575 20.33878142 7.39934473 15.75010236 4.75 10.875 C4.29109375 10.05128906 3.8321875 9.22757813 3.359375 8.37890625 C0 2.27004278 0 2.27004278 0 0 Z " fill="#EA9766" transform="translate(105,198)"/>
<path d="M0 0 C2.50746667 3.76120001 2.38432942 6.82366461 2.375 11.1875 C2.37338867 11.95473389 2.37177734 12.72196777 2.37011719 13.51245117 C2.21375921 20.70875055 0.67686407 25.02570659 -4.25 30.5 C-4.8275 30.995 -5.405 31.49 -6 32 C-5.125 27.25 -5.125 27.25 -4 25 C-3.34 25 -2.68 25 -2 25 C-1.12489617 19.52140877 -0.70975966 14.10142201 -0.4375 8.5625 C-0.37272461 7.32209961 -0.37272461 7.32209961 -0.30664062 6.05664062 C-0.20161967 4.03790451 -0.10041441 2.01897049 0 0 Z " fill="#2E8EBD" transform="translate(274,136)"/>
<path d="M0 0 C2 2 2 2 2.75 4.5625 C3.1625 5.366875 3.575 6.17125 4 7 C7.05272465 7.89830839 7.05272465 7.89830839 10 8 C6.31426952 12.02387089 1.85325675 13.7057579 -3.5 14.2578125 C-8.70933361 14.3689873 -13.08676522 13.70895123 -18 12 C-13.85340627 10.80200551 -10.00630953 11.1103808 -5.75 11.4375 C-5.00492188 11.48970703 -4.25984375 11.54191406 -3.4921875 11.59570312 C-1.66105139 11.7248217 0.16953813 11.86165114 2 12 C1.67257813 10.90558594 1.34515625 9.81117188 1.0078125 8.68359375 C0.14424014 5.5272033 -0.19543278 3.22464094 0 0 Z " fill="#AB8372" transform="translate(140,317)"/>
<path d="M0 0 C0.7425 0.53625 1.485 1.0725 2.25 1.625 C7.20358147 4.94318855 12.65170269 7.39289128 18 10 C19.33421284 10.66490475 20.6679438 11.33078516 22 12 C19.8125 12.6875 19.8125 12.6875 17 13 C16.2575 12.54625 15.515 12.0925 14.75 11.625 C11.00684469 9.4131355 7.3186682 9.03393845 3 9 C2.01 9.495 2.01 9.495 1 10 C1.226875 9.401875 1.45375 8.80375 1.6875 8.1875 C1.790625 7.465625 1.89375 6.74375 2 6 C0.64555699 4.22809091 0.64555699 4.22809091 -1 3 C-0.67 2.01 -0.34 1.02 0 0 Z " fill="#D3CCD8" transform="translate(111,300)"/>
<path d="M0 0 C0.33 0.66 0.66 1.32 1 2 C1.91523437 1.97679687 2.83046875 1.95359375 3.7734375 1.9296875 C4.96195312 1.91164062 6.15046875 1.89359375 7.375 1.875 C8.55835937 1.85179687 9.74171875 1.82859375 10.9609375 1.8046875 C14 2 14 2 16 4 C14.27192682 4.33895656 12.54248026 4.67091525 10.8125 5 C9.36810547 5.2784375 9.36810547 5.2784375 7.89453125 5.5625 C5 6 5 6 0 6 C0.66 11.28 1.32 16.56 2 22 C-1.07292823 17.39060765 -1.13742347 13.87859547 -1.125 8.375 C-1.12757812 7.22773438 -1.13015625 6.08046875 -1.1328125 4.8984375 C-1 2 -1 2 0 0 Z " fill="#E4BA57" transform="translate(94,154)"/>
<path d="M0 0 C0.99 0.33 1.98 0.66 3 1 C1.63369847 2.13554838 0.25647748 3.25796375 -1.125 4.375 C-1.89070313 5.00148437 -2.65640625 5.62796875 -3.4453125 6.2734375 C-8.45287046 9.65775037 -12.91589061 10.24661448 -18.875 10.125 C-20.02742187 10.10695312 -21.17984375 10.08890625 -22.3671875 10.0703125 C-23.23601562 10.04710937 -24.10484375 10.02390625 -25 10 C-24.34 9.01 -23.68 8.02 -23 7 C-20.06402461 6.61615491 -17.31972627 6.396157 -14.375 6.3125 C-13.17230469 6.26125977 -13.17230469 6.26125977 -11.9453125 6.20898438 C-9.96403682 6.12643122 -7.98203963 6.06154084 -6 6 C-5.34 4.68 -4.68 3.36 -4 2 C-2.68 2 -1.36 2 0 2 C0 1.34 0 0.68 0 0 Z " fill="#59A8D2" transform="translate(265,168)"/>
<path d="M0 0 C-8.09396519 6.62663817 -17.15010016 5.47815048 -27 5 C-27 4.34 -27 3.68 -27 3 C-25.68644531 2.87882813 -24.37289062 2.75765625 -23.01953125 2.6328125 C-21.28381613 2.46393211 -19.54814108 2.29463961 -17.8125 2.125 C-16.94818359 2.04636719 -16.08386719 1.96773437 -15.19335938 1.88671875 C-10.19023289 1.38832301 -4.53281023 -1.51093674 0 0 Z " fill="#CDCF6A" transform="translate(202,199)"/>
<path d="M0 0 C2.12890625 -0.328125 2.12890625 -0.328125 4.5625 -0.25 C5.36816406 -0.23453125 6.17382812 -0.2190625 7.00390625 -0.203125 C9 0 9 0 10 1 C10.04063832 2.66617115 10.042721 4.33388095 10 6 C7.39517051 6.94721072 5.69325299 7.30222393 3.109375 6.17578125 C1.37417127 5.17063275 -0.31640423 4.0893855 -2 3 C-1.34 2.01 -0.68 1.02 0 0 Z " fill="#036245" transform="translate(199,176)"/>
<path d="M0 0 C0.99 0 1.98 0 3 0 C0.26898057 9.41300606 -5.64465896 16.95198146 -14 22 C-14 21.01 -14 20.02 -14 19 C-10.66666667 16 -10.66666667 16 -8 16 C-8 15.01 -8 14.02 -8 13 C-7.34 13 -6.68 13 -6 13 C-6 12.01 -6 11.02 -6 10 C-5.01 10 -4.02 10 -3 10 C-2.01 6.7 -1.02 3.4 0 0 Z " fill="#B2713E" transform="translate(165,304)"/>
<path d="M0 0 C1.39852912 4.19558737 -0.22736864 6.04566851 -2 10 C-2.69140522 12.77888613 -2.69140522 12.77888613 -3 15 C-3.66 15 -4.32 15 -5 15 C-5 19.29 -5 23.58 -5 28 C-5.33 28 -5.66 28 -6 28 C-6.4977396 7.01198011 -6.4977396 7.01198011 -1.875 1.4375 C-1.25625 0.963125 -0.6375 0.48875 0 0 Z " fill="#CBCC5C" transform="translate(98,129)"/>
<path d="M0 0 C0.66 1.32 1.32 2.64 2 4 C2.66 4 3.32 4 4 4 C4.45375 5.134375 4.9075 6.26875 5.375 7.4375 C6.57095806 11.04721692 6.57095806 11.04721692 9 12 C9 15.3 9 18.6 9 22 C6.41675987 20.70837993 6.30278869 19.72668375 5.2734375 17.0703125 C4.9640625 16.27496094 4.6546875 15.47960937 4.3359375 14.66015625 C4.01882812 13.82355469 3.70171875 12.98695313 3.375 12.125 C2.88773437 10.88169922 2.88773437 10.88169922 2.390625 9.61328125 C0 3.39564732 0 3.39564732 0 0 Z " fill="#EBA77B" transform="translate(96,176)"/>
<path d="M0 0 C1.66015625 1.3203125 1.66015625 1.3203125 4.09765625 3.7578125 C4.09765625 4.4178125 4.09765625 5.0778125 4.09765625 5.7578125 C3.43765625 5.7578125 2.77765625 5.7578125 2.09765625 5.7578125 C2.09765625 5.0978125 2.09765625 4.4378125 2.09765625 3.7578125 C1.45828125 3.6340625 0.81890625 3.5103125 0.16015625 3.3828125 C-0.86078125 3.0734375 -0.86078125 3.0734375 -1.90234375 2.7578125 C-2.23234375 2.0978125 -2.56234375 1.4378125 -2.90234375 0.7578125 C-8.29846251 -1.24906652 -13.12748413 -1.49445515 -18.83984375 -1.3671875 C-19.61908203 -1.35816406 -20.39832031 -1.34914063 -21.20117188 -1.33984375 C-23.10169822 -1.31652441 -25.00206383 -1.28066336 -26.90234375 -1.2421875 C-18.93833103 -6.55152932 -7.8047118 -5.09630052 0 0 Z " fill="#F8F8CB" transform="translate(137.90234375,114.2421875)"/>
<path d="M0 0 C0.33 0 0.66 0 1 0 C1.99 4.29 2.98 8.58 4 13 C3.34 12.67 2.68 12.34 2 12 C2 11.01 2 10.02 2 9 C1.34 9 0.68 9 0 9 C0 8.34 0 7.68 0 7 C-1.95903745 7.47627975 -3.91721097 7.95611423 -5.875 8.4375 C-7.51082031 8.83775391 -7.51082031 8.83775391 -9.1796875 9.24609375 C-11.92484721 9.8786478 -11.92484721 9.8786478 -14 11 C-13.76953125 9.109375 -13.76953125 9.109375 -13 7 C-11.07421875 5.953125 -11.07421875 5.953125 -8.6875 5.25 C-7.90761719 5.00765625 -7.12773437 4.7653125 -6.32421875 4.515625 C-4 4 -4 4 0 4 C0 2.68 0 1.36 0 0 Z " fill="#1F8EBD" transform="translate(233,135)"/>
<path d="M0 0 C0.66 0.33 1.32 0.66 2 1 C2 1.33 2 1.66 2 2 C2.99 2.33 3.98 2.66 5 3 C2.36 5.64 -0.28 8.28 -3 11 C-3.33 10.34 -3.66 9.68 -4 9 C-4.99 9 -5.98 9 -7 9 C-5.64978174 4.58110387 -3.73884332 2.65654657 0 0 Z " fill="#0E6046" transform="translate(193,115)"/>
<path d="M0 0 C3.38483604 1.12827868 5.35153397 2.63785462 8 5 C8 5.66 8 6.32 8 7 C8.66 7 9.32 7 10 7 C10.66 9.97 11.32 12.94 12 16 C7.49486569 11.76790414 3.485708 7.11304141 0 2 C0 1.34 0 0.68 0 0 Z " fill="#B0B8BE" transform="translate(85,296)"/>
<path d="M0 0 C1.7074998 1.28062485 3.37373596 2.61767557 5 4 C5 4.66 5 5.32 5 6 C5.66 6 6.32 6 7 6 C7 6.66 7 7.32 7 8 C7.66 8 8.32 8 9 8 C9 8.66 9 9.32 9 10 C8.67 10.33 8.34 10.66 8 11 C8.28674418 13.00720923 8.61866701 15.0085944 9 17 C9.99 17.33 10.98 17.66 12 18 C11.34 18.99 10.68 19.98 10 21 C8.69856454 18.81782566 7.40892573 16.62994758 6.125 14.4375 C5.76019531 13.82841797 5.39539063 13.21933594 5.01953125 12.59179688 C2.61790009 8.46535788 1.13474926 4.64052723 0 0 Z " fill="#96AAAD" transform="translate(74,275)"/>
<path d="M0 0 C1.74627478 2.61941217 2.38722388 4.03824877 3 7 C3.99 7 4.98 7 6 7 C8.49977543 10.33303391 9 11.73303602 9 16 C7.68 15.67 6.36 15.34 5 15 C4.896875 14.360625 4.79375 13.72125 4.6875 13.0625 C4.460625 12.381875 4.23375 11.70125 4 11 C3.01 10.67 2.02 10.34 1 10 C-0.1577506 6.52674819 -0.06866652 3.63932552 0 0 Z " fill="#CBCA5F" transform="translate(155,160)"/>
<path d="M0 0 C6 6 6 6 6.09765625 8.28515625 C6.08605469 9.20167969 6.07445312 10.11820313 6.0625 11.0625 C6.05347656 11.98160156 6.04445312 12.90070313 6.03515625 13.84765625 C6.02355469 14.55792969 6.01195312 15.26820312 6 16 C4.00336517 13.42961953 2.25981274 10.88441837 0.75 8 C0.39421875 7.34 0.0384375 6.68 -0.328125 6 C-1.13384316 3.60158317 -0.81998065 2.35481623 0 0 Z " fill="#4399CA" transform="translate(244,99)"/>
<path d="M0 0 C2.00390625 1.375 2.00390625 1.375 4 4 C4.44706127 7.36177809 4.19045311 10.62729186 3.9375 14 C3.89689453 14.90234375 3.85628906 15.8046875 3.81445312 16.734375 C3.51910728 21.54530975 3.21039238 24.23583239 0 28 C0.165 27.113125 0.33 26.22625 0.5 25.3125 C1.69117396 16.94024873 1.30676769 8.33064401 0 0 Z " fill="#2987B5" transform="translate(257,128)"/>
<path d="M0 0 C0.67675781 0.32613281 1.35351562 0.65226563 2.05078125 0.98828125 C5.57686316 2.19789081 8.46650189 2.23063064 12.1875 2.1875 C14.03408203 2.17783203 14.03408203 2.17783203 15.91796875 2.16796875 C18.91200187 2.20978133 18.91200187 2.20978133 21 1 C21.33 2.32 21.66 3.64 22 5 C19.24993392 5.0270203 16.50013454 5.04684883 13.75 5.0625 C12.97269531 5.07087891 12.19539062 5.07925781 11.39453125 5.08789062 C10.26337891 5.09272461 10.26337891 5.09272461 9.109375 5.09765625 C8.07248535 5.10551147 8.07248535 5.10551147 7.01464844 5.11352539 C4.90026102 4.99437971 3.03358485 4.57618237 1 4 C0.67 2.68 0.34 1.36 0 0 Z " fill="#CECD62" transform="translate(171,183)"/>
<path d="M0 0 C0.66 0 1.32 0 2 0 C2 7.92 2 15.84 2 24 C-1.20569385 19.19145922 -1.15761196 15.04948066 -1.125 9.375 C-1.12886719 8.694375 -1.13273438 8.01375 -1.13671875 7.3125 C-1.12672061 2.25344122 -1.12672061 2.25344122 0 0 Z " fill="#DAEBEF" transform="translate(249,48)"/>
<path d="M0 0 C0.33 1.65 0.66 3.3 1 5 C0.34 5 -0.32 5 -1 5 C-0.34 6.65 0.32 8.3 1 10 C0.01 10.495 0.01 10.495 -1 11 C-1 10.34 -1 9.68 -1 9 C-1.66 9 -2.32 9 -3 9 C-4.06775224 7.03533587 -5.06553465 5.03144641 -6 3 C-4.60722783 0.21445565 -3.01148006 0 0 0 Z " fill="#EC722C" transform="translate(110,192)"/>
<path d="M0 0 C2.66343273 3.33751138 4.70475504 6.88101852 6.75 10.625 C7.38421875 11.77226562 8.0184375 12.91953125 8.671875 14.1015625 C9.11015625 15.05804688 9.5484375 16.01453125 10 17 C9.67 17.66 9.34 18.32 9 19 C8.67 18.01 8.34 17.02 8 16 C7.34 16 6.68 16 6 16 C1.88388957 11.11211886 0.93576346 6.23021458 0 0 Z " fill="#F0B48E" transform="translate(120,185)"/>
<path d="M0 0 C0.66 0.33 1.32 0.66 2 1 C1.67 1.99 1.34 2.98 1 4 C0.77202438 6.73289293 0.58331813 9.45042204 0.4375 12.1875 C0.39431641 12.93708984 0.35113281 13.68667969 0.30664062 14.45898438 C0.20077315 16.30578375 0.0999024 18.15286834 0 20 C-0.66 20 -1.32 20 -2 20 C-2.05392397 17.22890693 -2.09363455 14.45886182 -2.125 11.6875 C-2.14175781 10.90181641 -2.15851563 10.11613281 -2.17578125 9.30664062 C-2.18544922 8.1706543 -2.18544922 8.1706543 -2.1953125 7.01171875 C-2.20578613 6.31522217 -2.21625977 5.61872559 -2.22705078 4.90112305 C-2 3 -2 3 0 0 Z " fill="#D0CF68" transform="translate(110,137)"/>
<path d="M0 0 C1.32 0.33 2.64 0.66 4 1 C4.33 3.97 4.66 6.94 5 10 C3.68 10 2.36 10 1 10 C0 9 0 9 -0.09765625 6.93359375 C-0.08605469 6.10988281 -0.07445312 5.28617187 -0.0625 4.4375 C-0.05347656 3.61121094 -0.04445312 2.78492187 -0.03515625 1.93359375 C-0.02355469 1.29550781 -0.01195312 0.65742187 0 0 Z " fill="#0B94DD" transform="translate(244,90)"/>
<path d="M0 0 C1.32418738 1.98628107 2.59664267 4.00812037 3.8125 6.0625 C6.10816781 9.14525391 7.36848269 9.99124519 11 11 C11 11.33 11 11.66 11 12 C4.25 12.125 4.25 12.125 2 11 C2 10.34 2 9.68 2 9 C1.01 8.67 0.02 8.34 -1 8 C-1 7.34 -1 6.68 -1 6 C-0.34 6 0.32 6 1 6 C0.67 4.02 0.34 2.04 0 0 Z " fill="#52A7CF" transform="translate(237,148)"/>
<path d="M0 0 C1.72880982 -0.05449838 3.45812712 -0.09301688 5.1875 -0.125 C6.15042969 -0.14820312 7.11335937 -0.17140625 8.10546875 -0.1953125 C11.12812778 0.0086456 13.26769985 0.73125368 16 2 C16 2.66 16 3.32 16 4 C14.845 3.835 13.69 3.67 12.5 3.5 C8.30092197 2.96761689 4.22936959 2.92447554 0 3 C0 2.01 0 1.02 0 0 Z " fill="#125640" transform="translate(200,113)"/>
<path d="M0 0 C1.32 0.66 2.64 1.32 4 2 C3.16855469 2.67095703 3.16855469 2.67095703 2.3203125 3.35546875 C-3.14132545 7.74888571 -3.14132545 7.74888571 -6 14 C-6.33 14 -6.66 14 -7 14 C-7 12.02 -7 10.04 -7 8 C-6.34 8 -5.68 8 -5 8 C-4.731875 7.236875 -4.46375 6.47375 -4.1875 5.6875 C-3.05575888 3.12619116 -2.08776599 1.80307062 0 0 Z " fill="#CEE2E7" transform="translate(258,34)"/>
<path d="M0 0 C0.99 0.33 1.98 0.66 3 1 C3.33 2.98 3.66 4.96 4 7 C5.32 7.33 6.64 7.66 8 8 C8.33 11.3 8.66 14.6 9 18 C6.47362507 14.63150009 4.67313841 11.6146535 2.8125 7.875 C2.28269531 6.82054687 1.75289062 5.76609375 1.20703125 4.6796875 C0 2 0 2 0 0 Z " fill="#E9A57A" transform="translate(140,256)"/>
<path d="M0 0 C2 1 2 1 3 3.58203125 C3.33 4.64808594 3.66 5.71414062 4 6.8125 C5.11137536 10.37671552 6.21754195 13.71359296 8 17 C8.66 17 9.32 17 10 17 C9.67 17.99 9.34 18.98 9 20 C8.34 20 7.68 20 7 20 C6.67 18.35 6.34 16.7 6 15 C5.34 15 4.68 15 4 15 C3.51787786 13.43840941 3.03944127 11.87568072 2.5625 10.3125 C2.29566406 9.44238281 2.02882813 8.57226562 1.75390625 7.67578125 C1.03655471 5.12974079 0.482459 2.5996577 0 0 Z " fill="#E1753B" transform="translate(118,184)"/>
<path d="M0 0 C3.39104319 5.08656478 3.66365213 10.99338579 3 17 C2.34 17.99 1.68 18.98 1 20 C-0.1482685 17.703463 -0.11561175 16.41686833 -0.09765625 13.8671875 C-0.09443359 13.06152344 -0.09121094 12.25585938 -0.08789062 11.42578125 C-0.07951172 10.58402344 -0.07113281 9.74226562 -0.0625 8.875 C-0.05798828 8.02550781 -0.05347656 7.17601562 -0.04882812 6.30078125 C-0.03702874 4.20049091 -0.01909306 2.1002367 0 0 Z " fill="#669888" transform="translate(210,164)"/>
<path d="M0 0 C0.33 0.66 0.66 1.32 1 2 C-0.67534656 6.74852829 -3.16479692 10.71268307 -7 14 C-7.66 13.67 -8.32 13.34 -9 13 C-8.34 11.68 -7.68 10.36 -7 9 C-6.34 9 -5.68 9 -5 9 C-4.67 7.35 -4.34 5.7 -4 4 C-3.01 4 -2.02 4 -1 4 C-0.67 2.68 -0.34 1.36 0 0 Z " fill="#C5D290" transform="translate(211,184)"/>
<path d="M0 0 C1.485 0.99 1.485 0.99 3 2 C3.969375 2.103125 4.93875 2.20625 5.9375 2.3125 C9.83214985 3.18680915 10.83414168 4.75121252 13 8 C10 9 10 9 7.7734375 7.890625 C6.98195312 7.34921875 6.19046875 6.8078125 5.375 6.25 C4.57835937 5.71890625 3.78171875 5.1878125 2.9609375 4.640625 C1 3 1 3 0 0 Z " fill="#6FB8D5" transform="translate(227,168)"/>
<path d="M0 0 C12.8125 1.875 12.8125 1.875 16 6 C15.67 6.66 15.34 7.32 15 8 C14.34 7.67 13.68 7.34 13 7 C13 6.34 13 5.68 13 5 C10.36 5 7.72 5 5 5 C4.67 4.34 4.34 3.68 4 3 C1.98330173 1.86649466 1.98330173 1.86649466 0 1 C0 0.67 0 0.34 0 0 Z " fill="#C9CB54" transform="translate(123,113)"/>
<path d="M0 0 C0.33 0 0.66 0 1 0 C1.66 6.6 2.32 13.2 3 20 C-0.8925457 14.16118145 -1.63402818 7.87109614 -1 1 C-0.67 0.67 -0.34 0.34 0 0 Z " fill="#CDDFE6" transform="translate(232,64)"/>
<path d="M0 0 C5.9782058 1.11458074 8.94612259 2.18602057 13 7 C12.01 7.495 12.01 7.495 11 8 C8.65234375 6.85546875 8.65234375 6.85546875 5.9375 5.1875 C5.03902344 4.64480469 4.14054687 4.10210937 3.21484375 3.54296875 C1 2 1 2 0 0 Z " fill="#B9BEC4" transform="translate(104,318)"/>
<path d="M0 0 C2.375 0.375 2.375 0.375 5 2 C6.08008783 5.27825654 6.57730231 8.58056494 7 12 C3.71245925 10.35622962 3.12314476 7.36943428 2 4 C1.34 4 0.68 4 0 4 C0 2.68 0 1.36 0 0 Z " fill="#E48B57" transform="translate(127,203)"/>
<path d="M0 0 C1.98 0.99 1.98 0.99 4 2 C4 3.65 4 5.3 4 7 C4.66 7 5.32 7 6 7 C6 8.98 6 10.96 6 13 C5.34 13 4.68 13 4 13 C3.32942113 11.2097939 2.6636531 9.41778511 2 7.625 C1.62875 6.62726563 1.2575 5.62953125 0.875 4.6015625 C0 2 0 2 0 0 Z " fill="#105940" transform="translate(190,160)"/>
<path d="M0 0 C3.96189783 4.23513217 5.43181728 8.547001 7 14 C6.34 13.67 5.68 13.34 5 13 C5 12.34 5 11.68 5 11 C4.01 11 3.02 11 2 11 C0.80712589 7.12315913 0 4.08378077 0 0 Z " fill="#ECA47B" transform="translate(157,248)"/>
<path d="M0 0 C2.51912388 0.33588318 3.67196119 0.57354954 5.25 2.625 C6.25295915 5.8010373 6.12721966 8.69228878 6 12 C2.44992282 8.0949151 1.18180084 5.02265357 0 0 Z " fill="#E38B5D" transform="translate(134,244)"/>
<path d="M0 0 C2.00993705 2.00993705 2.89940919 3.59211232 4.125 6.125 C4.47820312 6.84945312 4.83140625 7.57390625 5.1953125 8.3203125 C5.46085938 8.87460938 5.72640625 9.42890625 6 10 C6.66 10 7.32 10 8 10 C8 11.65 8 13.3 8 15 C7.34 15 6.68 15 6 15 C0.62870159 5.58997722 0.62870159 5.58997722 -1 1 C-0.67 0.67 -0.34 0.34 0 0 Z " fill="#CDCE5E" transform="translate(141,167)"/>
<path d="M0 0 C1.57529969 2.95197464 2.66804755 5.85815922 3.625 9.0625 C3.88539062 9.91972656 4.14578125 10.77695313 4.4140625 11.66015625 C5 14 5 14 5 17 C4.34 17 3.68 17 3 17 C0.70657253 11.10261508 -0.34548714 6.33393082 0 0 Z " fill="#EFB08C" transform="translate(111,159)"/>
<path d="M0 0 C0.66666667 1.33333333 1.33333333 2.66666667 2 4 C2.36867188 4.64453125 2.73734375 5.2890625 3.1171875 5.953125 C4.16049547 8.37212225 4.20210398 10.12846484 4.125 12.75 C4.10695313 13.54921875 4.08890625 14.3484375 4.0703125 15.171875 C4.03550781 16.07679688 4.03550781 16.07679688 4 17 C0.82824575 13.56464151 0.54233495 10.84669909 0.3125 6.25 C0.24675781 5.07953125 0.18101563 3.9090625 0.11328125 2.703125 C0.07589844 1.81109375 0.03851563 0.9190625 0 0 Z " fill="#F4DFEC" transform="translate(11,256)"/>
<path d="M0 0 C0 0.66 0 1.32 0 2 C-0.66 2 -1.32 2 -2 2 C-2.226875 2.61875 -2.45375 3.2375 -2.6875 3.875 C-4.39873685 6.64557394 -5.97107345 6.9657324 -9 8 C-9.99 8.66 -10.98 9.32 -12 10 C-10.58426179 6.60812721 -8.95769034 4.90302459 -6 2.75 C-5.29875 2.22921875 -4.5975 1.7084375 -3.875 1.171875 C-2 0 -2 0 0 0 Z " fill="#F4DFE8" transform="translate(28,202)"/>
<path d="M0 0 C2 2 2 2 2.1875 4.9375 C2 8 2 8 1 11 C1.38932856 13.14255793 1.38932856 13.14255793 2 15 C-0.0625 13.4375 -0.0625 13.4375 -2 11 C-1.8125 7.5 -1.8125 7.5 -1 4 C-0.814375 3.195625 -0.62875 2.39125 -0.4375 1.5625 C-0.293125 1.046875 -0.14875 0.53125 0 0 Z " fill="#148CCA" transform="translate(252,104)"/>
<path d="M0 0 C0.33 0.66 0.66 1.32 1 2 C3.98536532 2.72975597 6.20055149 3.22841386 9.1875 2.375 C9.785625 2.25125 10.38375 2.1275 11 2 C12.61328125 3.4765625 12.61328125 3.4765625 14 5 C12.25034642 5.05429959 10.50020213 5.09292823 8.75 5.125 C7.77546875 5.14820313 6.8009375 5.17140625 5.796875 5.1953125 C2.9803502 4.99862781 1.39050964 4.44568916 -1 3 C-0.67 2.01 -0.34 1.02 0 0 Z " fill="#E7D3EA" transform="translate(127,324)"/>
<path d="M0 0 C0.66 0 1.32 0 2 0 C2.33 2.31 2.66 4.62 3 7 C3.99 6.67 4.98 6.34 6 6 C6.33 6.99 6.66 7.98 7 9 C6.01 9.33 5.02 9.66 4 10 C4 10.99 4 11.98 4 13 C2.68 11.35 1.36 9.7 0 8 C0.66 8 1.32 8 2 8 C1.34 7.01 0.68 6.02 0 5 C-0.125 2.3125 -0.125 2.3125 0 0 Z " fill="#C8B8C6" transform="translate(97,304)"/>
<path d="M0 0 C2.30874711 2.16614803 4.05290181 4.39206608 5.75 7.0625 C6.19859375 7.75472656 6.6471875 8.44695312 7.109375 9.16015625 C7.40328125 9.76730469 7.6971875 10.37445313 8 11 C7.67 11.66 7.34 12.32 7 13 C1.26598465 7.56777494 1.26598465 7.56777494 0 4 C0 2.68 0 1.36 0 0 Z " fill="#E8A377" transform="translate(133,209)"/>
<path d="M0 0 C0.66 0.33 1.32 0.66 2 1 C1.01 1.33 0.02 1.66 -1 2 C-1.268125 2.598125 -1.53625 3.19625 -1.8125 3.8125 C-3.53549232 6.98643322 -5.90959398 8.2340537 -9 10 C-9.99 10 -10.98 10 -12 10 C-4.40952513 2.01578292 -4.40952513 2.01578292 0 0 Z " fill="#F4F2C7" transform="translate(109,113)"/>
<path d="M0 0 C1.58467728 0.28427417 3.1677057 0.57774818 4.75 0.875 C6.07257813 1.11863281 6.07257813 1.11863281 7.421875 1.3671875 C9.86947744 1.96796264 11.80599857 2.77997117 14 4 C14 4.66 14 5.32 14 6 C8.65155992 5.46515599 4.64203897 3.53309233 0 1 C0 0.67 0 0.34 0 0 Z " fill="#316432" transform="translate(196,182)"/>
<path d="M0 0 C0.99 0.33 1.98 0.66 3 1 C1.56967163 2.17544805 0.13046758 3.34010262 -1.3125 4.5 C-2.11300781 5.1496875 -2.91351563 5.799375 -3.73828125 6.46875 C-6 8 -6 8 -9 8 C-9 7.34 -9 6.68 -9 6 C-8.01 6 -7.02 6 -6 6 C-5.34 4.68 -4.68 3.36 -4 2 C-2.68 2 -1.36 2 0 2 C0 1.34 0 0.68 0 0 Z " fill="#54A1C0" transform="translate(265,168)"/>
<path d="M0 0 C-1 3 -1 3 -2.7421875 3.94921875 C-3.79792969 4.31466797 -3.79792969 4.31466797 -4.875 4.6875 C-5.92300781 5.06455078 -5.92300781 5.06455078 -6.9921875 5.44921875 C-9 6 -9 6 -12 6 C-12 5.01 -12 4.02 -12 3 C-10.37604003 2.49663233 -8.75079459 1.99741024 -7.125 1.5 C-6.22007812 1.2215625 -5.31515625 0.943125 -4.3828125 0.65625 C-2 0 -2 0 0 0 Z " fill="#9ED9F7" transform="translate(251,82)"/>
<path d="M0 0 C1.65 0 3.3 0 5 0 C5.33 3.96 5.66 7.92 6 12 C4 8 4 8 4 6 C3.34 6 2.68 6 2 6 C2 4.35 2 2.7 2 1 C1.34 0.67 0.68 0.34 0 0 Z " fill="#D67949" transform="translate(137,311)"/>
<path d="M0 0 C0.83414558 2.38480081 1.11903995 3.63319086 0.328125 6.0703125 C-0.20554688 7.08738281 -0.20554688 7.08738281 -0.75 8.125 C-1.09546875 8.80820312 -1.4409375 9.49140625 -1.796875 10.1953125 C-3 12 -3 12 -6 14 C-6.99 13.67 -7.98 13.34 -9 13 C-8 11 -8 11 -5.625 9.875 C-1.83485915 7.16775653 -1.36963056 4.39723495 0 0 Z " fill="#B07442" transform="translate(151,296)"/>
<path d="M0 0 C0.99 0 1.98 0 3 0 C3 6.6 3 13.2 3 20 C2.67 20 2.34 20 2 20 C1.93941406 19.05898438 1.87882813 18.11796875 1.81640625 17.1484375 C1.69072266 15.28058594 1.69072266 15.28058594 1.5625 13.375 C1.48128906 12.14523437 1.40007812 10.91546875 1.31640625 9.6484375 C1.03336056 6.38467612 0.58961047 3.22056141 0 0 Z " fill="#D17A3C" transform="translate(150,276)"/>
<path d="M0 0 C3.16115776 1.36983503 3.9927092 1.9890638 6 5 C6.125 7.6875 6.125 7.6875 6 10 C2.46413986 6.82679218 0.41421969 4.83256305 0 0 Z " fill="#E08D62" transform="translate(139,221)"/>
<path d="M0 0 C1.68178661 2.52267991 2.90106742 4.81091823 4.125 7.5625 C4.47820312 8.34753906 4.83140625 9.13257813 5.1953125 9.94140625 C6 12 6 12 6 14 C5.34 14 4.68 14 4 14 C1.46663323 11.46663323 0.09955415 9.62397714 -0.125 5.9609375 C-0.125 3.97352151 -0.06621043 1.98631279 0 0 Z " fill="#56887A" transform="translate(202,144)"/>
<path d="M0 0 C1.70840281 1.63412443 2.93453047 2.86906094 4 5 C4.039992 6.99960012 4.04346799 9.00047242 4 11 C2.35 10.67 0.7 10.34 -1 10 C-1 9.34 -1 8.68 -1 8 C-0.34 7.67 0.32 7.34 1 7 C0.67 4.69 0.34 2.38 0 0 Z " fill="#47817B" transform="translate(229,128)"/>
<path d="M0 0 C3.33773709 3.64116773 3.97864902 7.28607242 5 12 C4.34 12 3.68 12 3 12 C3 11.34 3 10.68 3 10 C2.34 10 1.68 10 1 10 C-0.60725635 6.78548731 -0.05748185 3.56387464 0 0 Z " fill="#ECA77E" transform="translate(164,262)"/>
<path d="M0 0 C0 0.33 0 0.66 0 1 C-1.093125 1.185625 -2.18625 1.37125 -3.3125 1.5625 C-6.9490498 2.57516528 -6.9490498 2.57516528 -8.1328125 4.69140625 C-9.05926212 6.83650143 -9.05926212 6.83650143 -10 10 C-10.33 10 -10.66 10 -11 10 C-10.67 7.36 -10.34 4.72 -10 2 C-9.34 2 -8.68 2 -8 2 C-8 1.34 -8 0.68 -8 0 C-5.13822943 -1.43088528 -3.06624227 -0.59991697 0 0 Z " fill="#F6E1EE" transform="translate(40,219)"/>
<path d="M0 0 C1.98 0 3.96 0 6 0 C6 1.32 6 2.64 6 4 C3.69 4 1.38 4 -1 4 C-0.67 2.68 -0.34 1.36 0 0 Z " fill="#CBD234" transform="translate(196,187)"/>
<path d="M0 0 C0.99 0 1.98 0 3 0 C2.54300722 5.02692063 0.00758252 8.14896261 -3 12 C-3.625 10.1875 -3.625 10.1875 -4 8 C-3.34 7.01 -2.68 6.02 -2 5 C-1.34 5 -0.68 5 0 5 C0 3.35 0 1.7 0 0 Z " fill="#5AA3C3" transform="translate(272,156)"/>
<path d="M0 0 C0.33 1.32 0.66 2.64 1 4 C-0.65 5.32 -2.3 6.64 -4 8 C-5.32 7.34 -6.64 6.68 -8 6 C-5.66785852 4.79371992 -3.50357861 3.8345262 -1 3 C-0.67 2.01 -0.34 1.02 0 0 Z " fill="#E0732D" transform="translate(149,305)"/>
<path d="M0 0 C2.45823172 3.68734758 3.01242616 6.69699971 4 11 C1.525 10.01 1.525 10.01 -1 9 C-1.09765625 2.84765625 -1.09765625 2.84765625 -1 1 C-0.67 0.67 -0.34 0.34 0 0 Z " fill="#208EC8" transform="translate(266,108)"/>
<path d="M0 0 C1.890625 0.18359375 1.890625 0.18359375 4 1 C5.046875 3.28515625 5.046875 3.28515625 5.75 6.0625 C5.99234375 6.98160156 6.2346875 7.90070313 6.484375 8.84765625 C6.65453125 9.55792969 6.8246875 10.26820313 7 11 C4.0444623 8.24829249 1.88436685 5.58029701 0 2 C0 1.34 0 0.68 0 0 Z " fill="#EBA97C" transform="translate(112,211)"/>
<path d="M0 0 C2 0 2 0 3.5625 1.25 C5.15506076 3.18876962 5.43905917 4.59596785 6 7 C6.66 7.33 7.32 7.66 8 8 C7.67 8.66 7.34 9.32 7 10 C5.1875 9.4375 5.1875 9.4375 3 8 C0 1.89285714 0 1.89285714 0 0 Z " fill="#ED7032" transform="translate(127,207)"/>
<path d="M0 0 C0.99 0.33 1.98 0.66 3 1 C3 4.3 3 7.6 3 11 C1 10 1 10 0 7 C-0.03954234 4.66700175 -0.04401732 2.33291811 0 0 Z " fill="#EC905A" transform="translate(102,187)"/>
<path d="M0 0 C0.66 0.99 1.32 1.98 2 3 C2.99 3.33 3.98 3.66 5 4 C5.6875 6.0625 5.6875 6.0625 6 8 C3.83125748 7.49396008 2.00032373 7.00016187 0 6 C-0.72159424 4.35636866 -1.39351421 2.68949614 -2 1 C-1.34 0.67 -0.68 0.34 0 0 Z " fill="#CFD05F" transform="translate(152,184)"/>
<path d="M0 0 C1.32 0 2.64 0 4 0 C2.25 5.75 2.25 5.75 0 8 C-0.66 7.34 -1.32 6.68 -2 6 C-1.34 4.02 -0.68 2.04 0 0 Z " fill="#FB6F18" transform="translate(104,176)"/>
<path d="M0 0 C0.66 0 1.32 0 2 0 C4.39073445 3.82517513 4.55966552 7.59665524 5 12 C2.65398514 9.86725921 1.13735551 7.97462211 0 5 C-0.125 2.25 -0.125 2.25 0 0 Z " fill="#79B7CD" transform="translate(238,89)"/>
<path d="M0 0 C-1.1446875 0.6496875 -1.1446875 0.6496875 -2.3125 1.3125 C-4.58093768 2.73686785 -6.2199723 4.03260097 -8 6 C-8.99 5.01 -9.98 4.02 -11 3 C-9.68 2.67 -8.36 2.34 -7 2 C-7 1.34 -7 0.68 -7 0 C-3.86650268 -1.04449911 -3.01031744 -0.93423645 0 0 Z " fill="#CCDDE6" transform="translate(265,15)"/>
<path d="M0 0 C-3.27185553 1.07310858 -5.42947592 0.89263102 -8.75 0.0625 C-9.54921875 -0.13214844 -10.3484375 -0.32679688 -11.171875 -0.52734375 C-11.77515625 -0.68332031 -12.3784375 -0.83929688 -13 -1 C-13 -1.33 -13 -1.66 -13 -2 C-8.02398374 -3.71050559 -4.57383705 -2.00885647 0 0 Z " fill="#C9CBD6" transform="translate(130,328)"/>
<path d="M0 0 C0.33 0 0.66 0 1 0 C2 3 3 6 4 9 C1.03 8.505 1.03 8.505 -2 8 C-1.125 2.25 -1.125 2.25 0 0 Z " fill="#155735" transform="translate(196,174)"/>
<path d="M0 0 C0.33 0.99 0.66 1.98 1 3 C0.07421875 4.82421875 0.07421875 4.82421875 -1.3125 6.6875 C-1.76238281 7.31011719 -2.21226563 7.93273437 -2.67578125 8.57421875 C-3.11277344 9.04472656 -3.54976563 9.51523438 -4 10 C-4.66 10 -5.32 10 -6 10 C-4.6302836 6.00499382 -2.74277578 3.19990508 0 0 Z " fill="#D0CE71" transform="translate(102,120)"/>
<path d="M0 0 C0.66 0 1.32 0 2 0 C2 0.66 2 1.32 2 2 C2.66 2 3.32 2 4 2 C5.06775224 3.96466413 6.06553465 5.96855359 7 8 C6.67 8.66 6.34 9.32 6 10 C2.65756352 8.10595266 2.02002851 7.05908409 0.75 3.3125 C0.5025 2.219375 0.255 1.12625 0 0 Z " fill="#D0D173" transform="translate(138,118)"/>
<path d="M0 0 C-3.5087188 3.09592835 -6.49197399 4.74194623 -11 6 C-9.08100535 0.24301605 -5.72528715 -0.39036049 0 0 Z " fill="#CAC958" transform="translate(114,116)"/>
<path d="M0 0 C0.33 0 0.66 0 1 0 C1.33 2.64 1.66 5.28 2 8 C0.68 7.67 -0.64 7.34 -2 7 C-2.125 4.625 -2.125 4.625 -2 2 C-1.34 1.34 -0.68 0.68 0 0 Z " fill="#F6C1C0" transform="translate(138,312)"/>
<path d="M0 0 C4 4.5 4 4.5 4 9 C2.68 8.67 1.36 8.34 0 8 C0 5.36 0 2.72 0 0 Z " fill="#D8D77C" transform="translate(160,167)"/>
<path d="M0 0 C0.33 0 0.66 0 1 0 C1.99 4.29 2.98 8.58 4 13 C3.34 12.67 2.68 12.34 2 12 C2 11.01 2 10.02 2 9 C1.34 9 0.68 9 0 9 C-1.625 7 -1.625 7 -3 5 C-2.01 5 -1.02 5 0 5 C0 3.35 0 1.7 0 0 Z " fill="#60AEC9" transform="translate(233,135)"/>
<path d="M0 0 C0.99 0 1.98 0 3 0 C3 2.97 3 5.94 3 9 C2.67 8.34 2.34 7.68 2 7 C1.34 7 0.68 7 0 7 C0 4.69 0 2.38 0 0 Z " fill="#528B79" transform="translate(199,135)"/>
<path d="M0 0 C0.66 0.33 1.32 0.66 2 1 C0 4 0 4 -3 5 C-3.73323796 7.01508358 -3.73323796 7.01508358 -4 9 C-4.99 9 -5.98 9 -7 9 C-5.64978174 4.58110387 -3.73884332 2.65654657 0 0 Z " fill="#72A692" transform="translate(193,115)"/>
<path d="M0 0 C0.66 0 1.32 0 2 0 C2.625 3.375 2.625 3.375 3 7 C2.34 7.66 1.68 8.32 1 9 C-1.14809171 5.77786243 -1.29386153 4.72224599 -1 1 C-0.67 0.67 -0.34 0.34 0 0 Z " fill="#0D97DD" transform="translate(263,109)"/>
<path d="M0 0 C0.66 0.66 1.32 1.32 2 2 C-2.14285714 9.57142857 -2.14285714 9.57142857 -5 12 C-4.37343743 7.73937456 -3.1323664 3.1323664 0 0 Z " fill="#BCD4DB" transform="translate(239,31)"/>
<path d="M0 0 C0.66 0 1.32 0 2 0 C4.10827055 3.16240582 4.33817465 4.50657469 4.625 8.1875 C4.69976562 9.08855469 4.77453125 9.98960937 4.8515625 10.91796875 C4.90054688 11.60503906 4.94953125 12.29210937 5 13 C4.34 13 3.68 13 3 13 C2.86722656 12.39671875 2.73445312 11.7934375 2.59765625 11.171875 C2.42105469 10.37265625 2.24445313 9.5734375 2.0625 8.75 C1.88847656 7.96109375 1.71445313 7.1721875 1.53515625 6.359375 C1.052444 4.23121297 0.53836822 2.11467158 0 0 Z " fill="#E57337" transform="translate(160,259)"/>
<path d="M0 0 C2 1.5625 2 1.5625 4 4 C4.25 7.75 4.25 7.75 4 11 C3.67 10.01 3.34 9.02 3 8 C2.34 8 1.68 8 1 8 C0.67 5.36 0.34 2.72 0 0 Z " fill="#228EC5" transform="translate(257,128)"/>
<path d="M0 0 C2.35448165 2.55068845 2.98327924 3.71017358 3.1875 7.25 C3.125625 8.1575 3.06375 9.065 3 10 C2.01 9.67 1.02 9.34 0 9 C0 6.03 0 3.06 0 0 Z " fill="#EAE1E9" transform="translate(92,268)"/>
<path d="M0 0 C0.66 0 1.32 0 2 0 C2.33 1.32 2.66 2.64 3 4 C3.99 4 4.98 4 6 4 C6.33 6.31 6.66 8.62 7 11 C4.04250209 7.53258866 1.92151848 4.13126473 0 0 Z " fill="#EBB086" transform="translate(120,224)"/>
<path d="M0 0 C0.33 0.99 0.66 1.98 1 3 C-2.3 3 -5.6 3 -9 3 C-9 2.34 -9 1.68 -9 1 C-6.04335481 -0.4783226 -3.25770263 -0.06032783 0 0 Z " fill="#10533C" transform="translate(210,128)"/>
<path d="M0 0 C0 3.63 0 7.26 0 11 C-3.00617269 7.99382731 -2.59585316 5.17618402 -3 1 C-1 0 -1 0 0 0 Z " fill="#228FC9" transform="translate(244,90)"/>
<path d="M0 0 C6.42857143 4.14285714 6.42857143 4.14285714 9 7 C7.35 7 5.7 7 4 7 C3.67 6.01 3.34 5.02 3 4 C0.99983534 2.79117904 0.99983534 2.79117904 -1 2 C-0.67 1.34 -0.34 0.68 0 0 Z " fill="#95A6A6" transform="translate(111,300)"/>
<path d="M0 0 C0.33 0 0.66 0 1 0 C1 1.98 1 3.96 1 6 C0.34 6 -0.32 6 -1 6 C-1.33 7.98 -1.66 9.96 -2 12 C-3.47118907 8.17490842 -2.45442741 5.71687005 -1 2 C-0.67 1.34 -0.34 0.68 0 0 Z " fill="#F06934" transform="translate(166,298)"/>
<path d="M0 0 C2.475 0.99 2.475 0.99 5 2 C5 3.65 5 5.3 5 7 C4.01 7 3.02 7 2 7 C1.34 4.69 0.68 2.38 0 0 Z " fill="#DE824C" transform="translate(117,217)"/>
<path d="M0 0 C2.92509086 3.90012114 3.47535095 5.38308839 4 10 C3.01 10 2.02 10 1 10 C0.67 6.7 0.34 3.4 0 0 Z " fill="#2B85BD" transform="translate(234,144)"/>
<path d="M0 0 C1.625 1.5625 1.625 1.5625 3 4 C2.3125 7.6875 2.3125 7.6875 1 11 C0.01 11.495 0.01 11.495 -1 12 C-1.14285714 3.42857143 -1.14285714 3.42857143 0 0 Z " fill="#16634B" transform="translate(186,124)"/>
<path d="M0 0 C1.14926266 0.95421808 2.29430541 1.91352045 3.4375 2.875 C4.07558594 3.40867188 4.71367188 3.94234375 5.37109375 4.4921875 C7 6 7 6 8 8 C6.35 7.67 4.7 7.34 3 7 C2.67 6.01 2.34 5.02 2 4 C1.34 3.67 0.68 3.34 0 3 C0 2.01 0 1.02 0 0 Z " fill="#F3DDE8" transform="translate(56,208)"/>
<path d="M0 0 C0.66 0.33 1.32 0.66 2 1 C2 2.65 2 4.3 2 6 C1.34 6 0.68 6 0 6 C-0.33 7.32 -0.66 8.64 -1 10 C-1.125 2.25 -1.125 2.25 0 0 Z " fill="#1B90E2" transform="translate(262,138)"/>
<path d="M0 0 C3.12270126 2.51830747 3.94523098 3.7261549 4.75 7.75 C4.8325 8.8225 4.915 9.895 5 11 C2.03947516 7.63576723 1.07710178 4.30840713 0 0 Z " fill="#80C3DE" transform="translate(250,115)"/>
<path d="M0 0 C2.12508244 3.18762365 2.5020163 5.26512223 3 9 C1.68 8.34 0.36 7.68 -1 7 C-0.67 4.69 -0.34 2.38 0 0 Z " fill="#D0E1E6" transform="translate(251,73)"/>
<path d="M0 0 C5.445 1.485 5.445 1.485 11 3 C10.34 3.66 9.68 4.32 9 5 C5.5200048 4.6400005 2.87009953 2.91339969 0 1 C0 0.67 0 0.34 0 0 Z " fill="#7A9698" transform="translate(122,308)"/>
<path d="M0 0 C0.66 0.33 1.32 0.66 2 1 C2.4140625 3.06640625 2.4140625 3.06640625 2.625 5.5625 C2.69976562 6.38878906 2.77453125 7.21507813 2.8515625 8.06640625 C2.92503906 9.02353516 2.92503906 9.02353516 3 10 C0.86746245 7.40386733 -0.55075623 5.36932827 -1 2 C-0.67 1.34 -0.34 0.68 0 0 Z " fill="#5FA9CD" transform="translate(244,99)"/>
<path d="M0 0 C1.65 1.32 3.3 2.64 5 4 C4.67 4.66 4.34 5.32 4 6 C3.34 5.67 2.68 5.34 2 5 C1.67 5.66 1.34 6.32 1 7 C0 2.25 0 2.25 0 0 Z " fill="#91A5AA" transform="translate(106,294)"/>
<path d="M0 0 C0.33 0.66 0.66 1.32 1 2 C1.66 2 2.32 2 3 2 C3.33 3.98 3.66 5.96 4 8 C3.01 7.67 2.02 7.34 1 7 C0.67 4.69 0.34 2.38 0 0 Z " fill="#298AB7" transform="translate(261,99)"/>
</svg>
